M48
; DRILL file {KiCad 8.0.1} date 2025-07-05T22:55:21+0900
; FORMAT={-:-/ absolute / metric / decimal}
; #@! TF.CreationDate,2025-07-05T22:55:21+09:00
; #@! TF.GenerationSoftware,Kicad,Pcbnew,8.0.1
; #@! TF.FileFunction,Plated,1,2,PTH
FMAT,2
METRIC
; #@! TA.AperFunction,Plated,PTH,ViaDrill
T1C0.300
; #@! TA.AperFunction,Plated,PTH,ComponentDrill
T2C0.350
; #@! TA.AperFunction,Plated,PTH,ComponentDrill
T3C0.991
; #@! TA.AperFunction,Plated,PTH,ComponentDrill
T4C1.500
%
G90
G05
T1
X40.481Y-38.1
X40.481Y-76.2
X40.481Y-114.3
X42.862Y-57.15
X47.446Y-84.435
X47.625Y-95.25
X57.15Y-38.1
X61.912Y-57.15
X64.294Y-76.2
X64.294Y-114.3
X66.675Y-57.15
X71.438Y-76.2
X71.438Y-95.25
X76.2Y-38.1
X78.492Y-84.525
X80.962Y-95.25
X85.725Y-57.15
X85.725Y-114.3
X90.487Y-76.2
X90.487Y-114.3
X95.25Y-38.1
X97.821Y-84.804
X100.012Y-95.25
X104.775Y-57.15
X109.537Y-76.2
X109.537Y-114.3
X114.3Y-38.1
X117.371Y-85.304
X119.062Y-95.25
X123.825Y-57.15
X123.825Y-114.3
X128.588Y-76.2
X133.2Y-48.7
X133.35Y-38.1
X135.675Y-47.4
X136.834Y-85.716
X138.112Y-95.25
X142.875Y-57.15
X147.637Y-76.2
X152.4Y-38.1
X156.259Y-86.091
X157.162Y-95.25
X161.925Y-57.15
X161.925Y-114.3
X166.688Y-76.2
X171.45Y-38.1
X171.45Y-114.3
X175.721Y-86.504
X176.213Y-95.25
X180.975Y-57.15
X185.737Y-76.2
X190.5Y-38.1
X190.5Y-114.3
X195.171Y-86.904
X195.262Y-95.25
X200.025Y-57.15
X200.025Y-114.3
X204.787Y-76.2
X209.55Y-38.1
X209.55Y-114.3
X214.312Y-95.25
X214.646Y-87.329
X219.075Y-57.15
X223.837Y-76.2
X228.6Y-38.1
X230.981Y-114.3
X233.362Y-95.25
X234.209Y-87.841
X238.125Y-57.15
X238.125Y-114.3
X242.887Y-76.2
X247.65Y-38.1
X252.412Y-95.25
X252.412Y-114.3
X253.5Y-50.256
X253.571Y-88.154
X254.625Y-50.25
X254.794Y-57.15
X255.753Y-50.247
X264.319Y-76.2
X266.5Y-83.825
X266.7Y-38.1
X267.5Y-92.25
X268.625Y-93.675
X268.875Y-80.75
X269.0Y-101.525
X270.25Y-44.394
X271.462Y-114.3
X271.575Y-96.45
X271.85Y-83.125
X272.694Y-87.844
X273.325Y-81.85
X274.0Y-80.45
X274.525Y-104.3
X275.217Y-92.392
X275.325Y-82.4
X276.225Y-57.15
X276.375Y-98.025
X276.581Y-91.03
X277.35Y-85.025
X277.45Y-100.725
X278.6Y-83.85
X278.606Y-76.2
X278.9Y-94.025
X278.9Y-95.4
X280.075Y-100.25
X280.5Y-63.444
X281.075Y-83.4
X281.575Y-100.25
X281.875Y-83.4
X282.025Y-58.925
X282.675Y-83.4
X283.2Y-101.525
X283.475Y-83.4
X283.596Y-97.95
X283.8Y-107.175
X284.275Y-83.4
X285.6Y-62.05
X285.75Y-38.1
X286.25Y-62.625
X286.275Y-101.544
X287.0Y-60.65
X287.575Y-61.3
X288.225Y-100.075
X290.512Y-76.2
X292.894Y-114.3
X293.95Y-101.55
X295.275Y-95.25
X300.037Y-57.15
X301.3Y-51.65
X302.775Y-50.175
X304.8Y-95.25
X308.825Y-36.625
X314.325Y-76.2
X314.85Y-32.225
X316.706Y-114.3
X320.119Y-101.544
T2
X271.977Y-90.294
X272.878Y-89.392
X272.878Y-91.195
X273.78Y-88.49
X273.78Y-90.294
X273.78Y-92.097
X274.682Y-89.392
X274.682Y-91.195
X275.583Y-90.294
T3
X48.736Y-81.28
X51.276Y-81.28
X53.499Y-81.28
X56.039Y-81.28
T4
X43.815Y-35.56
X46.196Y-73.66
X48.578Y-54.61
X50.165Y-33.02
X50.959Y-73.66
X52.546Y-71.12
X54.927Y-52.07
X55.721Y-92.71
X57.309Y-71.12
X62.071Y-90.17
X62.865Y-35.56
X69.215Y-33.02
X72.39Y-54.61
X72.39Y-111.76
X77.153Y-73.66
X78.74Y-52.07
X78.74Y-109.22
X81.915Y-35.56
X83.502Y-71.12
X86.677Y-92.71
X88.265Y-33.02
X91.44Y-54.61
X93.027Y-90.17
X96.203Y-73.66
X96.203Y-111.76
X97.79Y-52.07
X100.965Y-35.56
X102.552Y-71.12
X102.552Y-109.22
X105.727Y-92.71
X107.315Y-33.02
X110.49Y-54.61
X112.078Y-90.17
X115.252Y-73.66
X116.84Y-52.07
X120.015Y-35.56
X121.602Y-71.12
X124.777Y-92.71
X126.365Y-33.02
X129.54Y-54.61
X131.127Y-90.17
X134.302Y-73.66
X135.89Y-52.07
X139.065Y-35.56
X139.065Y-111.76
X140.653Y-71.12
X143.827Y-92.71
X145.415Y-33.02
X145.415Y-109.22
X148.59Y-54.61
X150.177Y-90.17
X153.352Y-73.66
X154.94Y-52.07
X158.115Y-35.56
X159.702Y-71.12
X162.877Y-92.71
X164.465Y-33.02
X167.64Y-54.61
X169.227Y-90.17
X172.403Y-73.66
X173.99Y-52.07
X177.165Y-35.56
X177.165Y-111.76
X178.752Y-71.12
X181.927Y-92.71
X183.515Y-33.02
X183.515Y-109.22
X186.69Y-54.61
X188.278Y-90.17
X191.452Y-73.66
X193.04Y-52.07
X196.215Y-35.56
X197.802Y-71.12
X200.977Y-92.71
X202.565Y-33.02
X205.74Y-54.61
X207.327Y-90.17
X210.502Y-73.66
X212.09Y-52.07
X215.265Y-35.56
X215.265Y-111.76
X216.852Y-71.12
X220.028Y-92.71
X221.615Y-33.02
X221.615Y-109.22
X224.79Y-54.61
X226.377Y-90.17
X229.552Y-73.66
X231.14Y-52.07
X234.315Y-35.56
X235.903Y-71.12
X239.077Y-92.71
X240.665Y-33.02
X243.84Y-54.61
X245.427Y-90.17
X248.602Y-73.66
X250.19Y-52.07
X253.365Y-35.56
X254.952Y-71.12
X258.127Y-92.71
X258.127Y-111.76
X259.715Y-33.02
X262.89Y-54.61
X264.477Y-90.17
X264.477Y-109.22
X267.652Y-73.66
X269.24Y-52.07
X272.415Y-35.56
X274.002Y-71.12
X278.765Y-33.02
X281.94Y-54.61
X281.94Y-111.76
X284.321Y-92.71
X288.29Y-52.07
X288.29Y-109.22
X290.671Y-90.17
X291.465Y-35.56
X297.815Y-33.02
X298.609Y-73.66
X300.99Y-35.56
X304.959Y-71.12
X305.752Y-54.61
X307.34Y-33.02
X310.515Y-35.56
X310.515Y-92.71
X312.102Y-52.07
X316.865Y-33.02
X316.865Y-90.17
M30
