%TF.GenerationSoftware,KiCad,Pcbnew,8.0.1*%
%TF.CreationDate,2025-07-05T21:49:17+09:00*%
%TF.ProjectId,Lily60,4c696c79-3630-42e6-9b69-6361645f7063,rev?*%
%TF.SameCoordinates,Original*%
%TF.FileFunction,Profile,NP*%
%FSLAX46Y46*%
G04 Gerber Fmt 4.6, Leading zero omitted, Abs format (unit mm)*
G04 Created by KiCad (PCBNEW 8.0.1) date 2025-07-05 21:49:17*
%MOMM*%
%LPD*%
G01*
G04 APERTURE LIST*
%TA.AperFunction,Profile*%
%ADD10C,0.500000*%
%TD*%
%TA.AperFunction,Profile*%
%ADD11C,0.120000*%
%TD*%
G04 APERTURE END LIST*
D10*
X46775000Y-29075000D02*
X46775000Y-29075000D01*
X124274999Y-28075001D02*
X124274999Y-28075001D01*
X144974999Y-120825000D02*
X144974999Y-120825000D01*
X121774999Y-123325001D02*
X121774999Y-123325000D01*
X121775000Y-122825000D02*
X121775000Y-122825000D01*
X62274998Y-120825000D02*
G75*
G02*
X62274998Y-121825000I1J-500000D01*
G01*
X48774999Y-120825001D02*
X62274998Y-120825000D01*
X48774999Y-120825001D02*
G75*
G02*
X47774999Y-119825000I1J1000001D01*
G01*
X47774998Y-118525000D02*
X47774998Y-119825000D01*
X39599998Y-118525000D02*
X47774998Y-118525000D01*
X39599998Y-118525000D02*
G75*
G02*
X37599998Y-116525000I1J2000001D01*
G01*
X37600000Y-30074999D02*
X37599998Y-116525000D01*
X37600000Y-30074999D02*
G75*
G02*
X39599999Y-28075000I1999999J0D01*
G01*
X45774998Y-28075000D02*
X39599999Y-28075000D01*
X45774998Y-28075000D02*
G75*
G02*
X46774998Y-29075000I0J-1000000D01*
G01*
X46774999Y-29575000D02*
X46775000Y-29075000D01*
X48774999Y-31575000D02*
G75*
G02*
X46775000Y-29575000I1J2000000D01*
G01*
X62274998Y-31575000D02*
X48774999Y-31575000D01*
X62274998Y-30575000D02*
G75*
G02*
X62274998Y-31575000I1J-500000D01*
G01*
X48774999Y-30575001D02*
X62274998Y-30575000D01*
X48774999Y-30575001D02*
G75*
G02*
X47774999Y-29575000I1J1000001D01*
G01*
X47774998Y-26100000D02*
X47774998Y-29575000D01*
X47774998Y-26100000D02*
G75*
G02*
X49774999Y-24099998I2000001J1D01*
G01*
X120274999Y-24100000D02*
X49774999Y-24100000D01*
X120274999Y-24100000D02*
G75*
G02*
X122274998Y-26100000I0J-1999999D01*
G01*
X122274999Y-29575000D02*
X122274999Y-26100000D01*
X122274999Y-29575000D02*
G75*
G02*
X121274998Y-30575000I-1000001J1D01*
G01*
X108275000Y-30575000D02*
X121274998Y-30575000D01*
X108275000Y-31575000D02*
G75*
G02*
X108275000Y-30575000I-1J500000D01*
G01*
X121274998Y-31574999D02*
X108275000Y-31575000D01*
X123275000Y-29574999D02*
G75*
G02*
X121274998Y-31575001I-2000002J0D01*
G01*
X123274999Y-29075000D02*
X123275000Y-29574999D01*
X123274999Y-29075000D02*
G75*
G02*
X124274999Y-28074998I1000000J2D01*
G01*
X141974999Y-28075001D02*
X124274999Y-28075001D01*
X141974999Y-28075001D02*
G75*
G02*
X142974996Y-29075000I0J-999997D01*
G01*
X142975000Y-29575000D02*
X142975001Y-29075000D01*
X144974999Y-31574999D02*
G75*
G02*
X142975000Y-29575000I0J1999999D01*
G01*
X157975000Y-31575000D02*
X144974999Y-31574999D01*
X157975000Y-30575000D02*
G75*
G02*
X157975000Y-31575000I-1J-500000D01*
G01*
X144974999Y-30575000D02*
X157975000Y-30575000D01*
X144974999Y-30575000D02*
G75*
G02*
X143974999Y-29574999I0J1000000D01*
G01*
X143974998Y-26099999D02*
X143974998Y-29574999D01*
X143974998Y-26099999D02*
G75*
G02*
X145974998Y-24100000I2000000J-1D01*
G01*
X215975000Y-24099999D02*
X145974998Y-24099999D01*
X215975000Y-24099999D02*
G75*
G02*
X217975001Y-26099999I0J-2000001D01*
G01*
X217975000Y-29575001D02*
X217974998Y-26099999D01*
X217975000Y-29575001D02*
G75*
G02*
X216975000Y-30575000I-999999J0D01*
G01*
X203975000Y-30575000D02*
X216975000Y-30575000D01*
X203975000Y-31575000D02*
G75*
G02*
X203975000Y-30575000I-2J500000D01*
G01*
X216975001Y-31575000D02*
X203975000Y-31575000D01*
X218974999Y-29575001D02*
G75*
G02*
X216975001Y-31574999I-1999998J0D01*
G01*
X218975000Y-29074998D02*
X218974999Y-29575001D01*
X218975000Y-29074998D02*
G75*
G02*
X219974999Y-28074999I999999J0D01*
G01*
X237674999Y-28075000D02*
X219974999Y-28075000D01*
X237674999Y-28075000D02*
G75*
G02*
X238674997Y-29074996I0J-999998D01*
G01*
X238675001Y-29575004D02*
X238674998Y-29074996D01*
X240675000Y-31575000D02*
G75*
G02*
X238675001Y-29575004I1J2000000D01*
G01*
X253675000Y-31575000D02*
X240675000Y-31575000D01*
X253675000Y-30575000D02*
G75*
G02*
X253675000Y-31575000I-2J-500000D01*
G01*
X240674999Y-30575000D02*
X253675000Y-30575000D01*
X240674999Y-30575000D02*
G75*
G02*
X239675001Y-29575001I1J999999D01*
G01*
X239674999Y-26099999D02*
X239675000Y-29575001D01*
X239674999Y-26099999D02*
G75*
G02*
X241674998Y-24100000I1999999J0D01*
G01*
X312175000Y-24100000D02*
X241674998Y-24099999D01*
X312175000Y-24100000D02*
G75*
G02*
X314175000Y-26099999I1J-1999999D01*
G01*
X314174998Y-29575001D02*
X314174999Y-26099999D01*
X314174998Y-29575001D02*
G75*
G02*
X313174999Y-30575000I-999999J0D01*
G01*
X299675000Y-30575000D02*
X313174999Y-30575000D01*
X299675000Y-31575000D02*
G75*
G02*
X299675000Y-30575000I-2J500000D01*
G01*
X313175002Y-31575000D02*
X299675000Y-31575000D01*
X315174999Y-29575003D02*
G75*
G02*
X313175002Y-31574998I-1999996J1D01*
G01*
X315175000Y-29074996D02*
X315174999Y-29575003D01*
X315175000Y-29074996D02*
G75*
G02*
X316174996Y-28075000I999996J0D01*
G01*
X322350000Y-28075000D02*
X316174996Y-28075000D01*
X322350000Y-28075000D02*
G75*
G02*
X324349999Y-30074995I2J-1999997D01*
G01*
X324349999Y-116524999D02*
X324349999Y-30074995D01*
X324349999Y-116524999D02*
G75*
G02*
X322349999Y-118525001I-2000001J-1D01*
G01*
X314174999Y-118525000D02*
X322349999Y-118525000D01*
X314174999Y-119825002D02*
X314174999Y-118525000D01*
X314174999Y-119825002D02*
G75*
G02*
X313174999Y-120825001I-1000000J1D01*
G01*
X299675000Y-120825000D02*
X313174999Y-120825000D01*
X299675000Y-121825000D02*
G75*
G02*
X299675000Y-120825000I-2J500000D01*
G01*
X313174999Y-121825000D02*
X299675000Y-121825000D01*
X313174999Y-121825000D02*
G75*
G02*
X314175001Y-122824999I3J-999999D01*
G01*
X314174998Y-126300002D02*
X314175001Y-122824999D01*
X314174998Y-126300002D02*
G75*
G02*
X312175000Y-128299998I-1999997J1D01*
G01*
X241674998Y-128300000D02*
X312175000Y-128299999D01*
X241674998Y-128300000D02*
G75*
G02*
X239674999Y-126300001I0J1999999D01*
G01*
X239675000Y-125986581D02*
X239674999Y-126300001D01*
X239675000Y-125986581D02*
G75*
G02*
X240174999Y-125120559I999995J0D01*
G01*
X241174998Y-123388508D02*
G75*
G02*
X240174998Y-125120558I-1999999J0D01*
G01*
X241174998Y-122824999D02*
X241174998Y-123388508D01*
X241174998Y-122824999D02*
G75*
G02*
X242174997Y-121825000I999999J0D01*
G01*
X253675000Y-121825000D02*
X242174997Y-121825000D01*
X253675000Y-120825000D02*
G75*
G02*
X253675000Y-121825000I-2J-500000D01*
G01*
X242174997Y-120825000D02*
X253675000Y-120825000D01*
X240174999Y-122825003D02*
G75*
G02*
X242174997Y-120825001I1999998J4D01*
G01*
X240174999Y-123324997D02*
X240174999Y-122825003D01*
X240174999Y-123324997D02*
G75*
G02*
X239174999Y-124325000I-1000001J-2D01*
G01*
X235975000Y-124324999D02*
X239174999Y-124324999D01*
X235975000Y-124324999D02*
G75*
G02*
X233975002Y-122325001I0J1999998D01*
G01*
X233975001Y-121200000D02*
X233975001Y-122325001D01*
X225975000Y-121200000D02*
G75*
G02*
X233975002Y-121200000I4000001J0D01*
G01*
X225975001Y-122325001D02*
X225975000Y-121200000D01*
X225975001Y-122325001D02*
G75*
G02*
X223975002Y-124325000I-1999999J0D01*
G01*
X219974999Y-124325000D02*
X223975002Y-124325000D01*
X219974999Y-124325000D02*
G75*
G02*
X218975000Y-123325001I0J999999D01*
G01*
X218974999Y-122824999D02*
X218975000Y-123325001D01*
X216975001Y-120825001D02*
G75*
G02*
X218974999Y-122824999I0J-1999998D01*
G01*
X203975000Y-120825000D02*
X216975001Y-120825001D01*
X203975000Y-121825000D02*
G75*
G02*
X203975000Y-120825000I-2J500000D01*
G01*
X216974997Y-121824999D02*
X203975000Y-121825000D01*
X216974997Y-121824999D02*
G75*
G02*
X217975000Y-122825002I0J-1000003D01*
G01*
X217974999Y-126300002D02*
X217974999Y-122825002D01*
X217974999Y-126300002D02*
G75*
G02*
X215975000Y-128299998I-1999999J3D01*
G01*
X145974998Y-128300000D02*
X215975000Y-128300000D01*
X145974998Y-128300000D02*
G75*
G02*
X143974997Y-126300000I0J2000001D01*
G01*
X143974998Y-122825000D02*
X143974998Y-126300000D01*
X143974998Y-122825000D02*
G75*
G02*
X144974999Y-121825000I1000001J-1D01*
G01*
X157975000Y-121825000D02*
X144974999Y-121824999D01*
X157975000Y-120825000D02*
G75*
G02*
X157975000Y-121825000I-1J-500000D01*
G01*
X144974999Y-120825000D02*
X157975000Y-120825000D01*
X142975000Y-122825001D02*
G75*
G02*
X144974999Y-120825002I1999999J0D01*
G01*
X142975001Y-123325000D02*
X142975000Y-122825001D01*
X142975001Y-123325000D02*
G75*
G02*
X141974999Y-124325003I-1000002J-1D01*
G01*
X137974999Y-124325000D02*
X141974999Y-124325000D01*
X137974999Y-124325000D02*
G75*
G02*
X135974998Y-122325001I0J2000001D01*
G01*
X135974999Y-121199996D02*
X135975001Y-122325001D01*
X127974998Y-121200000D02*
G75*
G02*
X135975000Y-121199996I4000001J0D01*
G01*
X127974998Y-122325000D02*
X127974998Y-121200000D01*
X127974998Y-122325000D02*
G75*
G02*
X125975000Y-124324999I-1999999J0D01*
G01*
X122774998Y-124325000D02*
X125975000Y-124325000D01*
X122774998Y-124325000D02*
G75*
G02*
X121774998Y-123325001I0J1000000D01*
G01*
X121775000Y-122825000D02*
X121774999Y-123325000D01*
X119775000Y-120825000D02*
G75*
G02*
X121775000Y-122825000I-1J-2000001D01*
G01*
X108275000Y-120825000D02*
X119775000Y-120825000D01*
X108275000Y-121825000D02*
G75*
G02*
X108275000Y-120825000I-1J500000D01*
G01*
X119775000Y-121825000D02*
X108275000Y-121825000D01*
X119775000Y-121825000D02*
G75*
G02*
X120775000Y-122825000I-1J-1000001D01*
G01*
X120774999Y-123383601D02*
X120774998Y-122825000D01*
X121774999Y-125120558D02*
G75*
G02*
X120774998Y-123383601I1000000J1732059D01*
G01*
X121774999Y-125120559D02*
G75*
G02*
X122274998Y-125981309I-500000J-866041D01*
G01*
X122274997Y-126300000D02*
X122274997Y-125981309D01*
X122274997Y-126300000D02*
G75*
G02*
X120274999Y-128299998I-1999998J0D01*
G01*
X49774999Y-128299999D02*
X120274999Y-128299999D01*
X49774999Y-128299999D02*
G75*
G02*
X47775000Y-126299999I0J1999999D01*
G01*
X47774998Y-122825000D02*
X47774998Y-126299999D01*
X47774998Y-122825000D02*
G75*
G02*
X48774999Y-121824998I1000002J0D01*
G01*
X62274998Y-121825000D02*
X48774999Y-121825000D01*
X117275000Y-28075000D02*
X53275000Y-28075000D01*
X117275000Y-28075000D02*
G75*
G02*
X117275000Y-29075002I-1J-500001D01*
G01*
X53275000Y-29075000D02*
X117275000Y-29075000D01*
X53275000Y-29075000D02*
G75*
G02*
X53275000Y-28075002I-1J499999D01*
G01*
X212975000Y-123325000D02*
X148975000Y-123325000D01*
X212975000Y-123325000D02*
G75*
G02*
X212975000Y-124324996I-1J-499998D01*
G01*
X148975000Y-124325000D02*
X212975000Y-124325000D01*
X148975000Y-124325000D02*
G75*
G02*
X148975000Y-123324996I-1J500002D01*
G01*
X308675000Y-28075000D02*
X244675000Y-28075000D01*
X308675000Y-28075000D02*
G75*
G02*
X308675000Y-29075000I-1J-500000D01*
G01*
X244675000Y-29075000D02*
X308675000Y-29075000D01*
X244675000Y-29075000D02*
G75*
G02*
X244675000Y-28075000I-1J500000D01*
G01*
X212975000Y-28075000D02*
X148975000Y-28075000D01*
X212975000Y-28075000D02*
G75*
G02*
X212975000Y-29075000I-1J-500000D01*
G01*
X148975000Y-29075000D02*
X212975000Y-29075000D01*
X148975000Y-29075000D02*
G75*
G02*
X148975000Y-28075002I-1J499999D01*
G01*
X308675000Y-123325000D02*
X244675000Y-123325000D01*
X308675000Y-123325000D02*
G75*
G02*
X308675000Y-124324996I-1J-499998D01*
G01*
X244675000Y-124325000D02*
X308675000Y-124325000D01*
X244675000Y-124325000D02*
G75*
G02*
X244675000Y-123324996I-1J500002D01*
G01*
X117275000Y-123325000D02*
X53275000Y-123325000D01*
X117275000Y-123325000D02*
G75*
G02*
X117275000Y-124324996I-1J-499998D01*
G01*
X53275000Y-124325000D02*
X117275000Y-124325000D01*
X53275000Y-124325000D02*
G75*
G02*
X53275000Y-123324996I-1J500002D01*
G01*
D11*
%TO.C,D63*%
X300725002Y-109750000D02*
X300725002Y-113150000D01*
X300725002Y-113150000D02*
X303725002Y-113150000D01*
X303725002Y-109750000D02*
X300725002Y-109750000D01*
X303725002Y-113150000D02*
X303725002Y-109750000D01*
%TO.C,D66*%
X311725001Y-109750001D02*
X311725001Y-113150001D01*
X311725001Y-113150001D02*
X314725001Y-113150001D01*
X314725001Y-109750001D02*
X311725001Y-109750001D01*
X314725001Y-113150001D02*
X314725001Y-109750001D01*
%TO.C,D64*%
X306225002Y-109750001D02*
X306225002Y-113150001D01*
X306225002Y-113150001D02*
X309225002Y-113150001D01*
X309225002Y-109750001D02*
X306225002Y-109750001D01*
X309225002Y-113150001D02*
X309225002Y-109750001D01*
%TD*%
M02*
