M48
; DRILL file {KiCad 8.0.1} date 2025-07-05T22:55:21+0900
; FORMAT={-:-/ absolute / metric / decimal}
; #@! TF.CreationDate,2025-07-05T22:55:21+09:00
; #@! TF.GenerationSoftware,Kicad,Pcbnew,8.0.1
; #@! TF.FileFunction,NonPlated,1,2,NPTH
FMAT,2
METRIC
; #@! TA.AperFunction,NonPlated,NPTH,ComponentDrill
T1C1.750
; #@! TA.AperFunction,NonPlated,NPTH,ComponentDrill
T2C3.048
; #@! TA.AperFunction,NonPlated,NPTH,ComponentDrill
T3C3.988
; #@! TA.AperFunction,NonPlated,NPTH,ComponentDrill
T4C4.000
%
G90
G05
T1
X42.545Y-38.1
X44.926Y-76.2
X47.307Y-57.15
X52.705Y-38.1
X54.451Y-95.25
X57.467Y-57.15
X59.849Y-76.2
X61.595Y-38.1
X64.611Y-95.25
X71.12Y-57.15
X71.12Y-114.3
X71.755Y-38.1
X75.882Y-76.2
X80.645Y-38.1
X81.28Y-57.15
X81.28Y-114.3
X85.407Y-95.25
X86.042Y-76.2
X90.17Y-57.15
X90.805Y-38.1
X94.932Y-76.2
X94.932Y-114.3
X95.567Y-95.25
X99.695Y-38.1
X100.33Y-57.15
X104.457Y-95.25
X105.093Y-76.2
X105.093Y-114.3
X109.22Y-57.15
X109.855Y-38.1
X113.983Y-76.2
X114.617Y-95.25
X118.745Y-38.1
X119.38Y-57.15
X123.507Y-95.25
X124.142Y-76.2
X128.27Y-57.15
X128.905Y-38.1
X133.032Y-76.2
X133.667Y-95.25
X137.795Y-38.1
X137.795Y-114.3
X138.43Y-57.15
X142.558Y-95.25
X143.192Y-76.2
X147.32Y-57.15
X147.955Y-38.1
X147.955Y-114.3
X152.082Y-76.2
X152.718Y-95.25
X156.845Y-38.1
X157.48Y-57.15
X161.607Y-95.25
X162.243Y-76.2
X166.37Y-57.15
X167.005Y-38.1
X171.132Y-76.2
X171.767Y-95.25
X175.895Y-38.1
X175.895Y-114.3
X176.53Y-57.15
X180.657Y-95.25
X181.292Y-76.2
X185.42Y-57.15
X186.055Y-38.1
X186.055Y-114.3
X190.183Y-76.2
X190.817Y-95.25
X194.945Y-38.1
X195.58Y-57.15
X199.707Y-95.25
X200.343Y-76.2
X204.47Y-57.15
X205.105Y-38.1
X209.232Y-76.2
X209.867Y-95.25
X213.995Y-38.1
X213.995Y-114.3
X214.63Y-57.15
X218.757Y-95.25
X219.392Y-76.2
X223.52Y-57.15
X224.155Y-38.1
X224.155Y-114.3
X228.282Y-76.2
X228.917Y-95.25
X233.045Y-38.1
X233.68Y-57.15
X237.807Y-95.25
X238.442Y-76.2
X242.57Y-57.15
X243.205Y-38.1
X247.332Y-76.2
X247.968Y-95.25
X252.095Y-38.1
X252.73Y-57.15
X256.858Y-95.25
X256.858Y-114.3
X257.493Y-76.2
X261.62Y-57.15
X262.255Y-38.1
X266.382Y-76.2
X267.017Y-95.25
X267.017Y-114.3
X271.145Y-38.1
X271.78Y-57.15
X276.542Y-76.2
X280.67Y-57.15
X280.67Y-114.3
X281.305Y-38.1
X283.051Y-95.25
X290.195Y-38.1
X290.83Y-57.15
X290.83Y-114.3
X293.211Y-95.25
X297.339Y-76.2
X299.72Y-38.1
X300.355Y-38.1
X304.482Y-57.15
X307.499Y-76.2
X309.245Y-38.1
X309.245Y-95.25
X309.88Y-38.1
X314.642Y-57.15
X319.405Y-38.1
X319.405Y-95.25
T2
X47.593Y-88.265
X71.469Y-88.265
X123.825Y-121.285
X161.925Y-121.285
X200.025Y-121.285
X238.125Y-121.285
X290.481Y-69.215
X292.862Y-31.115
X314.357Y-69.215
X316.738Y-31.115
T3
X47.593Y-103.475
X71.469Y-103.475
X123.825Y-106.075
X161.925Y-106.075
X200.025Y-106.075
X238.125Y-106.075
X290.481Y-84.425
X292.862Y-46.325
X314.357Y-84.425
X316.738Y-46.325
T4
X47.625Y-38.1
X50.006Y-76.2
X52.387Y-57.15
X54.769Y-76.2
X59.531Y-95.25
X66.675Y-38.1
X76.2Y-57.15
X76.2Y-114.3
X80.962Y-76.2
X85.725Y-38.1
X90.487Y-95.25
X95.25Y-57.15
X100.012Y-76.2
X100.012Y-114.3
X104.775Y-38.1
X109.537Y-95.25
X114.3Y-57.15
X119.062Y-76.2
X123.825Y-38.1
X128.588Y-95.25
X133.35Y-57.15
X138.112Y-76.2
X142.875Y-38.1
X142.875Y-114.3
X147.637Y-95.25
X152.4Y-57.15
X157.162Y-76.2
X161.925Y-38.1
X166.688Y-95.25
X171.45Y-57.15
X176.213Y-76.2
X180.975Y-38.1
X180.975Y-114.3
X185.737Y-95.25
X190.5Y-57.15
X195.262Y-76.2
X200.025Y-38.1
X204.787Y-95.25
X209.55Y-57.15
X214.312Y-76.2
X219.075Y-38.1
X219.075Y-114.3
X223.837Y-95.25
X228.6Y-57.15
X233.362Y-76.2
X238.125Y-38.1
X242.887Y-95.25
X247.65Y-57.15
X252.412Y-76.2
X257.175Y-38.1
X261.938Y-95.25
X261.938Y-114.3
X266.7Y-57.15
X271.462Y-76.2
X276.225Y-38.1
X285.75Y-57.15
X285.75Y-114.3
X288.131Y-95.25
X295.275Y-38.1
X302.419Y-76.2
X304.8Y-38.1
X309.562Y-57.15
X314.325Y-38.1
X314.325Y-95.25
M30
