%TF.GenerationSoftware,KiCad,Pcbnew,9.0.4*%
%TF.CreationDate,2025-09-04T01:32:36+09:00*%
%TF.ProjectId,Lily60,4c696c79-3630-42e6-9b69-6361645f7063,rev?*%
%TF.SameCoordinates,Original*%
%TF.FileFunction,Soldermask,Top*%
%TF.FilePolarity,Negative*%
%FSLAX46Y46*%
G04 Gerber Fmt 4.6, Leading zero omitted, Abs format (unit mm)*
G04 Created by KiCad (PCBNEW 9.0.4) date 2025-09-04 01:32:36*
%MOMM*%
%LPD*%
G01*
G04 APERTURE LIST*
G04 Aperture macros list*
%AMFreePoly0*
4,1,801,6.062118,4.250451,6.148718,4.246490,6.231432,4.240272,6.310685,4.231500,6.386902,4.219882,6.460508,4.205123,6.531928,4.186928,6.601586,4.165005,6.669907,4.139058,6.737316,4.108793,6.804238,4.073918,6.957737,3.986623,7.036042,3.939060,7.114379,3.887818,7.191993,3.832100,7.268132,3.771103,7.342041,3.704030,7.377924,3.667964,7.412968,3.630079,7.447076,3.590275,
7.480157,3.548452,7.512115,3.504509,7.542856,3.458347,7.572286,3.409866,7.600310,3.358965,7.626835,3.305546,7.651766,3.249507,7.675010,3.190749,7.696471,3.129173,7.716055,3.064676,7.733669,2.997161,7.749219,2.926527,7.762609,2.852674,7.773746,2.775501,7.782535,2.694910,7.791117,2.564916,7.792748,2.437128,7.787465,2.311641,7.775305,2.188551,7.756306,2.067956,
7.730504,1.949952,7.697936,1.834635,7.658641,1.722100,7.612654,1.612446,7.560013,1.505767,7.500755,1.402161,7.434918,1.301724,7.362538,1.204552,7.283653,1.110741,7.198300,1.020388,7.106515,0.933589,7.041690,0.877304,6.977314,0.824876,6.913315,0.776274,6.849623,0.731467,6.786169,0.690424,6.722882,0.653113,6.659692,0.619503,6.596530,0.589564,6.533324,0.563264,
6.470005,0.540571,6.406502,0.521455,6.342746,0.505885,6.278667,0.493829,6.214193,0.485256,6.149256,0.480135,6.083784,0.478435,6.072321,0.476371,6.059726,0.472606,6.046088,0.467228,6.031499,0.460324,5.999828,0.442296,5.965435,0.419225,5.929044,0.391818,5.891377,0.360780,5.853159,0.326816,5.815113,0.290631,5.777961,0.252930,5.742428,0.214420,5.709236,0.175805,
5.679108,0.137790,5.652768,0.101080,5.630940,0.066382,5.621943,0.050008,5.614346,0.034400,5.608238,0.019648,5.603710,0.005840,5.593491,-0.034540,5.583848,-0.079921,5.566617,-0.182508,5.552666,-0.295552,5.542645,-0.412688,5.537201,-0.527549,5.536399,-0.582137,5.536985,-0.633768,5.539039,-0.681646,5.542644,-0.724977,5.547881,-0.762964,5.554829,-0.794810,5.565088,-0.834575,
5.575370,-0.879709,5.585669,-0.930162,5.595979,-0.985880,5.606291,-1.046813,5.616600,-1.112908,5.626899,-1.184113,5.637180,-1.260378,5.639742,-1.284514,5.641109,-1.308585,5.641291,-1.332558,5.640296,-1.356397,5.638135,-1.380069,5.634816,-1.403538,5.630348,-1.426769,5.624740,-1.449730,5.618001,-1.472384,5.610141,-1.494697,5.601169,-1.516636,5.591094,-1.538165,5.579924,-1.559249,
5.567669,-1.579855,5.554339,-1.599947,5.539941,-1.619492,5.524589,-1.638328,5.508442,-1.656270,5.491529,-1.673300,5.473882,-1.689400,5.455531,-1.704553,5.436507,-1.718741,5.416841,-1.731946,5.396563,-1.744151,5.375705,-1.755338,5.354296,-1.765490,5.332367,-1.774589,5.309950,-1.782617,5.287075,-1.789557,5.263772,-1.795391,5.240073,-1.800101,5.216007,-1.803670,4.412413,-1.893899,
3.857257,-1.947403,3.214222,-2.001335,2.494078,-2.051823,1.707596,-2.094996,0.865545,-2.126980,-0.021304,-2.143903,-0.661788,-2.148655,-1.300843,-2.150549,-2.691901,-2.137453,-3.359814,-2.118195,-4.000680,-2.087899,-4.608023,-2.044640,-5.175367,-1.986493,-5.696236,-1.911533,-5.937218,-1.867148,-6.164153,-1.817837,-6.183691,-1.812804,-6.202856,-1.807032,-6.221636,-1.800537,-6.240015,-1.793336,
-6.257981,-1.785447,-6.275518,-1.776885,-6.292613,-1.767667,-6.309252,-1.757811,-6.325420,-1.747333,-6.341105,-1.736250,-6.356291,-1.724578,-6.370965,-1.712334,-6.385113,-1.699535,-6.398721,-1.686198,-6.411775,-1.672339,-6.424261,-1.657976,-6.436164,-1.643124,-6.447472,-1.627802,-6.458169,-1.612024,-6.468242,-1.595809,-6.477677,-1.579172,-6.486460,-1.562132,-6.494577,-1.544703,-6.502014,-1.526904,
-6.508757,-1.508751,-6.514791,-1.490260,-6.520104,-1.471448,-6.524680,-1.452333,-6.528507,-1.432931,-6.531569,-1.413258,-6.533853,-1.393331,-6.535345,-1.373168,-6.535715,-1.346311,-6.097753,-1.346311,-6.097647,-1.349574,-6.097415,-1.352683,-6.097062,-1.355628,-6.096596,-1.358417,-6.096022,-1.361052,-6.095347,-1.363538,-6.094579,-1.365881,-6.093723,-1.368084,-6.092787,-1.370153,-6.091777,-1.372091,
-6.090699,-1.373904,-6.089561,-1.375595,-6.088369,-1.377171,-6.087130,-1.378634,-6.085850,-1.379990,-6.084536,-1.381243,-6.083195,-1.382398,-6.081834,-1.383460,-6.080458,-1.384432,-6.077693,-1.386129,-6.074952,-1.387525,-6.072288,-1.388656,-6.069757,-1.389560,-6.067410,-1.390273,-6.063484,-1.391272,-5.792243,-1.449005,-5.499804,-1.499668,-5.187677,-1.543687,-4.857371,-1.581491,-4.148259,-1.640156,
-3.384548,-1.679077,-2.578313,-1.701669,-1.741633,-1.711346,-0.025241,-1.705612,0.853282,-1.688850,1.687386,-1.657175,2.466411,-1.614421,3.179701,-1.564423,4.366441,-1.458029,5.162341,-1.368667,5.165269,-1.368222,5.168052,-1.367632,5.170695,-1.366909,5.173199,-1.366066,5.175567,-1.365115,5.177802,-1.364068,5.179907,-1.362939,5.181883,-1.361738,5.183735,-1.360479,5.185464,-1.359175,
5.187073,-1.357837,5.188565,-1.356479,5.189943,-1.355111,5.191208,-1.353748,5.192365,-1.352402,5.193414,-1.351084,5.194428,-1.349746,5.195439,-1.348301,5.196437,-1.346749,5.197408,-1.345090,5.198341,-1.343325,5.199224,-1.341454,5.200045,-1.339479,5.200792,-1.337400,5.201453,-1.335217,5.202015,-1.332931,5.202468,-1.330543,5.202798,-1.328053,5.202913,-1.326770,5.202994,-1.325463,
5.203038,-1.324129,5.203043,-1.322771,5.203010,-1.321388,5.202935,-1.319980,5.202818,-1.318548,5.202656,-1.317090,5.184474,-1.186636,5.175403,-1.127873,5.166413,-1.073833,5.157556,-1.024826,5.148882,-0.981164,5.140442,-0.943156,5.132286,-0.911114,5.120340,-0.859306,5.111163,-0.801886,5.104590,-0.739689,5.100458,-0.673550,5.098602,-0.604305,5.098859,-0.532788,5.101064,-0.459835,
5.105053,-0.386281,5.117728,-0.240711,5.135570,-0.102761,5.157266,0.020888,5.169150,0.075262,5.181505,0.123555,5.190256,0.151460,5.201227,0.180469,5.229443,0.241274,5.265382,0.304927,5.308270,0.370384,5.357336,0.436602,5.411806,0.502536,5.470908,0.567144,5.533870,0.629382,5.599918,0.688206,5.668280,0.742572,5.738184,0.791438,5.808857,0.833759,5.844240,0.852139,
5.879526,0.868492,5.914618,0.882686,5.949419,0.894593,5.983832,0.904081,6.017762,0.911019,6.051112,0.915278,6.083784,0.916726,6.112727,0.917201,6.143778,0.918858,6.176963,0.922043,6.212307,0.927102,6.249837,0.934383,6.289577,0.944231,6.331555,0.956994,6.375795,0.973019,6.422323,0.992652,6.471166,1.016239,6.522348,1.044127,6.575896,1.076663,6.631836,1.114194,
6.690192,1.157065,6.750991,1.205625,6.814259,1.260219,6.887499,1.329372,6.955439,1.401015,7.018073,1.475127,7.075392,1.551691,7.127390,1.630686,7.174060,1.712094,7.215394,1.795897,7.251385,1.882074,7.282027,1.970608,7.307311,2.061479,7.327232,2.154668,7.341781,2.250156,7.350951,2.347924,7.354736,2.447954,7.353128,2.550226,7.346121,2.654721,7.339755,2.714134,
7.331889,2.770894,7.322563,2.825092,7.311813,2.876819,7.299680,2.926167,7.286202,2.973225,7.271417,3.018085,7.255366,3.060838,7.238085,3.101574,7.219615,3.140386,7.199993,3.177362,7.179259,3.212596,7.157451,3.246177,7.134608,3.278196,7.085973,3.337914,7.033664,3.392477,6.977989,3.442612,6.919261,3.489047,6.857788,3.532509,6.793881,3.573727,6.727849,3.613426,
6.590654,3.691182,6.543031,3.715703,6.493947,3.736946,6.443040,3.755116,6.389945,3.770419,6.334299,3.783060,6.275740,3.793244,6.213904,3.801176,6.148427,3.807063,6.078947,3.811108,6.005100,3.813519,5.926522,3.814498,5.842852,3.814253,5.658776,3.810910,5.449967,3.805130,5.057693,3.794927,4.836081,3.791386,4.593578,3.790017,4.414959,3.786958,4.242457,3.778149,
4.076112,3.764143,3.915961,3.745493,3.762044,3.722750,3.614397,3.696468,3.473060,3.667198,3.338071,3.635493,3.087291,3.566988,2.862363,3.495373,2.663594,3.425066,2.491292,3.360489,2.364374,3.312863,2.307699,3.292464,2.255438,3.274764,2.234144,3.268375,2.213008,3.263036,2.192031,3.258709,2.171216,3.255357,2.150566,3.252940,2.130083,3.251422,2.089626,3.250928,
2.049864,3.253569,2.010816,3.259043,1.972501,3.267043,1.934938,3.277266,1.898145,3.289409,1.862141,3.303165,1.826946,3.318232,1.792577,3.334305,1.726395,3.368250,1.663746,3.402568,1.583440,3.446466,1.548108,3.464657,1.515513,3.480021,1.485296,3.492318,1.470969,3.497241,1.457101,3.501307,1.443649,3.504486,1.430569,3.506748,1.417814,3.508063,1.405341,3.508401,
1.393105,3.507732,1.381061,3.506025,1.369164,3.503251,1.357370,3.499380,1.345633,3.494381,1.333910,3.488224,1.322154,3.480880,1.310323,3.472318,1.298370,3.462509,1.286251,3.451422,1.273922,3.439027,1.261337,3.425294,1.248452,3.410193,1.235222,3.393694,1.207548,3.356382,1.197243,3.341418,1.187736,3.326699,1.179031,3.312230,1.171127,3.298013,1.164026,3.284050,
1.157730,3.270345,1.152238,3.256901,1.147553,3.243719,1.143675,3.230803,1.140606,3.218156,1.138347,3.205780,1.136898,3.193679,1.136262,3.181855,1.136438,3.170311,1.137429,3.159050,1.139236,3.148074,1.140843,3.141027,1.142805,3.133935,1.145120,3.126801,1.147784,3.119628,1.154153,3.105174,1.161891,3.090597,1.170978,3.075918,1.181393,3.061159,1.193116,3.046344,
1.206126,3.031495,1.220403,3.016634,1.235927,3.001783,1.252677,2.986965,1.270633,2.972203,1.289775,2.957518,1.310081,2.942933,1.331531,2.928471,1.354106,2.914154,1.375546,2.900152,1.396121,2.885110,1.415802,2.869071,1.434557,2.852082,1.452357,2.834184,1.469172,2.815424,1.484971,2.795845,1.499725,2.775491,1.513404,2.754408,1.525977,2.732638,1.537414,2.710226,
1.547686,2.687217,1.556761,2.663655,1.564610,2.639584,1.571204,2.615048,1.576511,2.590093,1.580509,2.564678,1.583143,2.539192,1.584423,2.513685,1.584362,2.488212,1.582974,2.462824,1.580270,2.437574,1.576263,2.412516,1.570965,2.387702,1.564390,2.363185,1.556549,2.339017,1.547455,2.315252,1.537121,2.291942,1.525560,2.269140,1.512782,2.246899,1.498802,2.225271,
1.483632,2.204309,1.458681,2.170722,1.435338,2.137302,1.413620,2.104076,1.393546,2.071075,1.375134,2.038327,1.358402,2.005859,1.343367,1.973703,1.336491,1.957749,1.330047,1.941885,1.264637,1.782447,1.177360,1.581911,1.071880,1.351303,0.951858,1.101651,0.820958,0.843981,0.682842,0.589321,0.612223,0.466565,0.541174,0.348697,0.470152,0.237094,0.399616,0.133136,
0.318563,0.024162,0.277021,-0.027047,0.234688,-0.076182,0.191481,-0.123325,0.147314,-0.168559,0.102101,-0.211968,0.055758,-0.253634,0.008200,-0.293642,-0.040657,-0.332073,-0.090900,-0.369011,-0.142613,-0.404538,-0.195882,-0.438739,-0.250790,-0.471696,-0.365866,-0.534210,-0.488522,-0.592744,-0.619438,-0.647965,-0.759294,-0.700535,-0.908770,-0.751121,-1.068545,-0.800385,-1.239299,-0.848993,
-1.421713,-0.897610,-1.616467,-0.946899,-1.758027,-0.979454,-1.896692,-1.006455,-2.032621,-1.028274,-2.165975,-1.045286,-2.296917,-1.057864,-2.425606,-1.066381,-2.552205,-1.071211,-2.676874,-1.072727,-2.921066,-1.067311,-3.159473,-1.053121,-3.393382,-1.033146,-3.624082,-1.010372,-3.851664,-0.987854,-4.075320,-0.968781,-4.186446,-0.961500,-4.297515,-0.956240,-4.408836,-0.953384,-4.520716,-0.953320,
-4.611564,-0.956353,-4.705484,-0.963350,-4.801985,-0.973997,-4.900571,-0.987983,-5.000749,-1.004993,-5.102026,-1.024715,-5.305899,-1.071045,-5.508239,-1.124470,-5.705096,-1.182487,-5.892520,-1.242594,-6.066560,-1.302287,-6.070338,-1.303680,-6.072652,-1.304661,-6.075164,-1.305872,-6.077811,-1.307345,-6.080529,-1.309110,-6.081894,-1.310111,-6.083254,-1.311197,-6.084600,-1.312372,-6.085924,-1.313639,
-6.087218,-1.315001,-6.088474,-1.316464,-6.089685,-1.318030,-6.090842,-1.319704,-6.091937,-1.321489,-6.092963,-1.323389,-6.093911,-1.325409,-6.094774,-1.327551,-6.095543,-1.329820,-6.096211,-1.332220,-6.096770,-1.334754,-6.097212,-1.337426,-6.097528,-1.340241,-6.097711,-1.343201,-6.097753,-1.346311,-6.535715,-1.346311,-6.535903,-1.332720,-6.533243,-1.292950,-6.527463,-1.254004,-6.518660,-1.216026,
-6.506931,-1.179164,-6.492374,-1.143563,-6.475085,-1.109369,-6.455162,-1.076727,-6.432702,-1.045784,-6.407803,-1.016685,-6.380560,-0.989576,-6.351072,-0.964603,-6.319436,-0.941912,-6.285749,-0.921649,-6.250108,-0.903959,-6.212610,-0.888988,-6.025967,-0.825080,-5.824294,-0.760722,-5.611640,-0.698591,-5.392053,-0.641364,-5.169580,-0.591716,-5.058526,-0.570571,-4.948270,-0.552325,-4.839316,-0.537311,
-4.732170,-0.525865,-4.627340,-0.518322,-4.525330,-0.515015,-4.404464,-0.515245,-4.284267,-0.518396,-4.164792,-0.524033,-4.046093,-0.531722,-3.811226,-0.551515,-3.580084,-0.574295,-3.363509,-0.595682,-3.144204,-0.614526,-2.921293,-0.628100,-2.808211,-0.632058,-2.693898,-0.633675,-2.578244,-0.632611,-2.461141,-0.628524,-2.342479,-0.621074,-2.222147,-0.609919,-2.100036,-0.594719,-1.976036,-0.575132,
-1.850039,-0.550818,-1.721933,-0.521435,-1.344956,-0.423335,-1.180149,-0.376202,-1.029713,-0.329617,-0.892587,-0.283036,-0.767709,-0.235912,-0.654016,-0.187699,-0.550446,-0.137850,-0.455939,-0.085819,-0.369430,-0.031060,-0.289860,0.026973,-0.216165,0.088827,-0.147285,0.155048,-0.082156,0.226181,-0.019716,0.302774,0.041095,0.385373,0.106906,0.482498,0.173521,0.587534,0.307247,0.815724,
0.438441,1.058710,0.563268,1.305264,0.677894,1.544152,0.778487,1.764146,0.861211,1.954014,0.922235,2.102525,0.931545,2.125456,0.941402,2.148421,0.962750,2.194427,0.986256,2.240505,1.011902,2.286614,1.039666,2.332712,1.069529,2.378760,1.101470,2.424717,1.135468,2.470543,1.137505,2.473387,1.139294,2.476216,1.140846,2.479024,1.142176,2.481802,1.143296,2.484545,
1.144219,2.487245,1.144960,2.489895,1.145531,2.492489,1.145945,2.495020,1.146215,2.497482,1.146356,2.499866,1.146380,2.502166,1.146300,2.504376,1.146130,2.506488,1.145882,2.508496,1.145571,2.510393,1.145052,2.512808,1.144424,2.515159,1.143688,2.517444,1.142844,2.519663,1.141891,2.521816,1.140830,2.523902,1.139661,2.525921,1.138384,2.527871,1.136998,2.529753,
1.135504,2.531566,1.133902,2.533309,1.132191,2.534981,1.130372,2.536583,1.128445,2.538113,1.126408,2.539571,1.124264,2.540957,1.081459,2.568353,1.040878,2.596461,1.002529,2.625273,0.966416,2.654783,0.932545,2.684982,0.900924,2.715863,0.871556,2.747420,0.844449,2.779645,0.819608,2.812530,0.797040,2.846069,0.776750,2.880254,0.758744,2.915077,0.743028,2.950532,
0.729607,2.986611,0.718489,3.023307,0.709679,3.060613,0.703746,3.094657,0.699784,3.128774,0.697789,3.162959,0.697762,3.197202,0.699698,3.231498,0.703597,3.265838,0.709457,3.300215,0.717274,3.334622,0.727048,3.369052,0.738776,3.403497,0.752457,3.437949,0.768087,3.472402,0.785666,3.506848,0.805190,3.541280,0.826659,3.575690,0.850070,3.610071,0.885722,3.657914,
0.921575,3.701424,0.957586,3.740761,0.993712,3.776085,1.029909,3.807556,1.066135,3.835335,1.102346,3.859581,1.138498,3.880454,1.174549,3.898115,1.210455,3.912724,1.246173,3.924441,1.281659,3.933426,1.316870,3.939839,1.351763,3.943841,1.386294,3.945590,1.420421,3.945249,1.454099,3.942975,1.487286,3.938931,1.552012,3.926169,1.614253,3.908243,1.673662,3.886435,
1.729892,3.862025,1.782597,3.836294,1.876047,3.785995,1.909941,3.767327,1.944888,3.748574,1.979879,3.730759,1.997076,3.722525,2.013906,3.714910,2.030242,3.708042,2.045959,3.702050,2.060929,3.697062,2.075029,3.693205,2.088130,3.690609,2.100107,3.689401,2.105634,3.689357,2.110833,3.689709,2.115689,3.690472,2.120184,3.691662,2.142912,3.699215,2.166859,3.707506,
2.218397,3.726128,2.335999,3.770331,2.519719,3.839191,2.731855,3.914157,2.972266,3.990518,3.103032,4.027749,3.240814,4.063562,3.385596,4.097367,3.537359,4.128576,3.696086,4.156600,3.861761,4.180849,4.034365,4.200735,4.213880,4.215668,4.400291,4.225060,4.593578,4.228322,4.831800,4.229668,5.050023,4.233156,5.437125,4.243251,5.668364,4.249587,5.875562,4.252771,
6.062118,4.250451,6.062118,4.250451,$1*%
G04 Aperture macros list end*
%ADD10C,1.750000*%
%ADD11C,4.000000*%
%ADD12C,2.500000*%
%ADD13C,3.048000*%
%ADD14C,3.987800*%
%ADD15FreePoly0,0.000000*%
%ADD16C,1.690600*%
%ADD17R,1.690600X1.690600*%
G04 APERTURE END LIST*
D10*
%TO.C,MX51*%
X218757500Y-95250000D03*
D11*
X223837500Y-95250000D03*
D10*
X228917500Y-95250000D03*
D12*
X220027500Y-92710000D03*
X226377500Y-90170000D03*
%TD*%
D10*
%TO.C,MX29*%
X304482500Y-57150000D03*
D11*
X309562500Y-57150000D03*
D10*
X314642500Y-57150000D03*
D12*
X305752500Y-54610000D03*
X312102500Y-52070000D03*
%TD*%
D10*
%TO.C,MX18*%
X90170000Y-57150000D03*
D11*
X95250000Y-57150000D03*
D10*
X100330000Y-57150000D03*
D12*
X91440000Y-54610000D03*
X97790000Y-52070000D03*
%TD*%
D13*
%TO.C,REF\u002A\u002A*%
X47593250Y-88265000D03*
D14*
X47593250Y-103475000D03*
D13*
X71469250Y-88265000D03*
D14*
X71469250Y-103475000D03*
%TD*%
D10*
%TO.C,MX16*%
X47307500Y-57150000D03*
D11*
X52387500Y-57150000D03*
D10*
X57467500Y-57150000D03*
D12*
X48577500Y-54610000D03*
X54927500Y-52070000D03*
%TD*%
D10*
%TO.C,MX33*%
X113982500Y-76200000D03*
D11*
X119062500Y-76200000D03*
D10*
X124142500Y-76200000D03*
D12*
X115252500Y-73660000D03*
X121602500Y-71120000D03*
%TD*%
D10*
%TO.C,MX31*%
X75882500Y-76200000D03*
D11*
X80962500Y-76200000D03*
D10*
X86042500Y-76200000D03*
D12*
X77152500Y-73660000D03*
X83502500Y-71120000D03*
%TD*%
D10*
%TO.C,MX1*%
X42545000Y-38100000D03*
D11*
X47625000Y-38100000D03*
D10*
X52705000Y-38100000D03*
D12*
X43815000Y-35560000D03*
X50165000Y-33020000D03*
%TD*%
D13*
%TO.C,REF\u002A\u002A*%
X292862000Y-31115000D03*
D14*
X292862000Y-46325000D03*
D13*
X316738000Y-31115000D03*
D14*
X316738000Y-46325000D03*
%TD*%
D10*
%TO.C,MX12*%
X252095000Y-38100000D03*
D11*
X257175000Y-38100000D03*
D10*
X262255000Y-38100000D03*
D12*
X253365000Y-35560000D03*
X259715000Y-33020000D03*
%TD*%
D10*
%TO.C,MX61*%
X256857500Y-114300000D03*
D11*
X261937500Y-114300000D03*
D10*
X267017500Y-114300000D03*
D12*
X258127500Y-111760000D03*
X264477500Y-109220000D03*
%TD*%
D10*
%TO.C,MX4*%
X99695000Y-38100000D03*
D11*
X104775000Y-38100000D03*
D10*
X109855000Y-38100000D03*
D12*
X100965000Y-35560000D03*
X107315000Y-33020000D03*
%TD*%
D10*
%TO.C,MX58*%
X137795000Y-114300000D03*
D11*
X142875000Y-114300000D03*
D10*
X147955000Y-114300000D03*
D12*
X139065000Y-111760000D03*
X145415000Y-109220000D03*
%TD*%
D10*
%TO.C,MX54*%
X283051250Y-95250000D03*
D11*
X288131250Y-95250000D03*
D10*
X293211250Y-95250000D03*
D12*
X284321250Y-92710000D03*
X290671250Y-90170000D03*
%TD*%
D10*
%TO.C,MX20*%
X128270000Y-57150000D03*
D11*
X133350000Y-57150000D03*
D10*
X138430000Y-57150000D03*
D12*
X129540000Y-54610000D03*
X135890000Y-52070000D03*
%TD*%
D10*
%TO.C,MX9*%
X194945000Y-38100000D03*
D11*
X200025000Y-38100000D03*
D10*
X205105000Y-38100000D03*
D12*
X196215000Y-35560000D03*
X202565000Y-33020000D03*
%TD*%
D10*
%TO.C,MX23*%
X185420000Y-57150000D03*
D11*
X190500000Y-57150000D03*
D10*
X195580000Y-57150000D03*
D12*
X186690000Y-54610000D03*
X193040000Y-52070000D03*
%TD*%
D10*
%TO.C,MX17*%
X71120000Y-57150000D03*
D11*
X76200000Y-57150000D03*
D10*
X81280000Y-57150000D03*
D12*
X72390000Y-54610000D03*
X78740000Y-52070000D03*
%TD*%
D10*
%TO.C,MX39*%
X228282500Y-76200000D03*
D11*
X233362500Y-76200000D03*
D10*
X238442500Y-76200000D03*
D12*
X229552500Y-73660000D03*
X235902500Y-71120000D03*
%TD*%
D10*
%TO.C,MX14*%
X290195000Y-38100000D03*
D11*
X295275000Y-38100000D03*
D10*
X300355000Y-38100000D03*
D12*
X291465000Y-35560000D03*
X297815000Y-33020000D03*
%TD*%
D10*
%TO.C,MX48*%
X161607500Y-95250000D03*
D11*
X166687500Y-95250000D03*
D10*
X171767500Y-95250000D03*
D12*
X162877500Y-92710000D03*
X169227500Y-90170000D03*
%TD*%
D10*
%TO.C,MX27*%
X261620000Y-57150000D03*
D11*
X266700000Y-57150000D03*
D10*
X271780000Y-57150000D03*
D12*
X262890000Y-54610000D03*
X269240000Y-52070000D03*
%TD*%
D10*
%TO.C,MX22*%
X166370000Y-57150000D03*
D11*
X171450000Y-57150000D03*
D10*
X176530000Y-57150000D03*
D12*
X167640000Y-54610000D03*
X173990000Y-52070000D03*
%TD*%
D10*
%TO.C,MX45*%
X104457500Y-95250000D03*
D11*
X109537500Y-95250000D03*
D10*
X114617500Y-95250000D03*
D12*
X105727500Y-92710000D03*
X112077500Y-90170000D03*
%TD*%
D10*
%TO.C,MX21*%
X147320000Y-57150000D03*
D11*
X152400000Y-57150000D03*
D10*
X157480000Y-57150000D03*
D12*
X148590000Y-54610000D03*
X154940000Y-52070000D03*
%TD*%
D10*
%TO.C,MX37*%
X190182500Y-76200000D03*
D11*
X195262500Y-76200000D03*
D10*
X200342500Y-76200000D03*
D12*
X191452500Y-73660000D03*
X197802500Y-71120000D03*
%TD*%
D10*
%TO.C,MX47*%
X142557500Y-95250000D03*
D11*
X147637500Y-95250000D03*
D10*
X152717500Y-95250000D03*
D12*
X143827500Y-92710000D03*
X150177500Y-90170000D03*
%TD*%
D13*
%TO.C,REF\u002A\u002A*%
X238125000Y-121285000D03*
D14*
X238125000Y-106075000D03*
D13*
X200025000Y-121285000D03*
D14*
X200025000Y-106075000D03*
%TD*%
D10*
%TO.C,MX25*%
X223520000Y-57150000D03*
D11*
X228600000Y-57150000D03*
D10*
X233680000Y-57150000D03*
D12*
X224790000Y-54610000D03*
X231140000Y-52070000D03*
%TD*%
D10*
%TO.C,MX62*%
X280670000Y-114300000D03*
D11*
X285750000Y-114300000D03*
D10*
X290830000Y-114300000D03*
D12*
X281940000Y-111760000D03*
X288290000Y-109220000D03*
%TD*%
D10*
%TO.C,MX26*%
X242570000Y-57150000D03*
D11*
X247650000Y-57150000D03*
D10*
X252730000Y-57150000D03*
D12*
X243840000Y-54610000D03*
X250190000Y-52070000D03*
%TD*%
D10*
%TO.C,MX49*%
X180657500Y-95250000D03*
D11*
X185737500Y-95250000D03*
D10*
X190817500Y-95250000D03*
D12*
X181927500Y-92710000D03*
X188277500Y-90170000D03*
%TD*%
D10*
%TO.C,MX60*%
X213995000Y-114300000D03*
D11*
X219075000Y-114300000D03*
D10*
X224155000Y-114300000D03*
D12*
X215265000Y-111760000D03*
X221615000Y-109220000D03*
%TD*%
D10*
%TO.C,MX44*%
X85407500Y-95250000D03*
D11*
X90487500Y-95250000D03*
D10*
X95567500Y-95250000D03*
D12*
X86677500Y-92710000D03*
X93027500Y-90170000D03*
%TD*%
D10*
%TO.C,MX40*%
X247332500Y-76200000D03*
D11*
X252412500Y-76200000D03*
D10*
X257492500Y-76200000D03*
D12*
X248602500Y-73660000D03*
X254952500Y-71120000D03*
%TD*%
D10*
%TO.C,MX43*%
X54451250Y-95250000D03*
D11*
X59531250Y-95250000D03*
D10*
X64611250Y-95250000D03*
D12*
X55721250Y-92710000D03*
X62071250Y-90170000D03*
%TD*%
D10*
%TO.C,MX55*%
X309245000Y-95250000D03*
D11*
X314325000Y-95250000D03*
D10*
X319405000Y-95250000D03*
D12*
X310515000Y-92710000D03*
X316865000Y-90170000D03*
%TD*%
D10*
%TO.C,MX53*%
X256857500Y-95250000D03*
D11*
X261937500Y-95250000D03*
D10*
X267017500Y-95250000D03*
D12*
X258127500Y-92710000D03*
X264477500Y-90170000D03*
%TD*%
D10*
%TO.C,MX56*%
X71120000Y-114300000D03*
D11*
X76200000Y-114300000D03*
D10*
X81280000Y-114300000D03*
D12*
X72390000Y-111760000D03*
X78740000Y-109220000D03*
%TD*%
D10*
%TO.C,MX10*%
X213995000Y-38100000D03*
D11*
X219075000Y-38100000D03*
D10*
X224155000Y-38100000D03*
D12*
X215265000Y-35560000D03*
X221615000Y-33020000D03*
%TD*%
D10*
%TO.C,MX24*%
X204470000Y-57150000D03*
D11*
X209550000Y-57150000D03*
D10*
X214630000Y-57150000D03*
D12*
X205740000Y-54610000D03*
X212090000Y-52070000D03*
%TD*%
D10*
%TO.C,MX6*%
X137795000Y-38100000D03*
D11*
X142875000Y-38100000D03*
D10*
X147955000Y-38100000D03*
D12*
X139065000Y-35560000D03*
X145415000Y-33020000D03*
%TD*%
D10*
%TO.C,MX50*%
X199707500Y-95250000D03*
D11*
X204787500Y-95250000D03*
D10*
X209867500Y-95250000D03*
D12*
X200977500Y-92710000D03*
X207327500Y-90170000D03*
%TD*%
D10*
%TO.C,MX28*%
X280670000Y-57150000D03*
D11*
X285750000Y-57150000D03*
D10*
X290830000Y-57150000D03*
D12*
X281940000Y-54610000D03*
X288290000Y-52070000D03*
%TD*%
D10*
%TO.C,MX15*%
X299720000Y-38100000D03*
D11*
X304800000Y-38100000D03*
D10*
X309245000Y-38100000D03*
X309880000Y-38100000D03*
D11*
X314325000Y-38100000D03*
D10*
X319405000Y-38100000D03*
D12*
X300990000Y-35560000D03*
X310515000Y-35560000D03*
X307340000Y-33020000D03*
X316865000Y-33020000D03*
%TD*%
D15*
%TO.C,REF\u002A\u002A*%
X52250000Y-114225000D03*
%TD*%
D10*
%TO.C,MX41*%
X266382500Y-76200000D03*
D11*
X271462500Y-76200000D03*
D10*
X276542500Y-76200000D03*
D12*
X267652500Y-73660000D03*
X274002500Y-71120000D03*
%TD*%
D10*
%TO.C,MX13*%
X271145000Y-38100000D03*
D11*
X276225000Y-38100000D03*
D10*
X281305000Y-38100000D03*
D12*
X272415000Y-35560000D03*
X278765000Y-33020000D03*
%TD*%
D13*
%TO.C,REF\u002A\u002A*%
X161925000Y-121285000D03*
D14*
X161925000Y-106075000D03*
D13*
X123825000Y-121285000D03*
D14*
X123825000Y-106075000D03*
%TD*%
D10*
%TO.C,MX3*%
X80645000Y-38100000D03*
D11*
X85725000Y-38100000D03*
D10*
X90805000Y-38100000D03*
D12*
X81915000Y-35560000D03*
X88265000Y-33020000D03*
%TD*%
D16*
%TO.C,D65*%
X51276250Y-81280000D03*
X53498750Y-81280000D03*
D17*
X48736250Y-81280000D03*
X56038750Y-81280000D03*
%TD*%
D10*
%TO.C,MX57*%
X94932500Y-114300000D03*
D11*
X100012500Y-114300000D03*
D10*
X105092500Y-114300000D03*
D12*
X96202500Y-111760000D03*
X102552500Y-109220000D03*
%TD*%
D10*
%TO.C,MX30*%
X44926250Y-76200000D03*
D11*
X50006250Y-76200000D03*
X54768750Y-76200000D03*
D10*
X59848750Y-76200000D03*
D12*
X46196250Y-73660000D03*
X50958750Y-73660000D03*
X52546250Y-71120000D03*
X57308750Y-71120000D03*
%TD*%
D10*
%TO.C,MX38*%
X209232500Y-76200000D03*
D11*
X214312500Y-76200000D03*
D10*
X219392500Y-76200000D03*
D12*
X210502500Y-73660000D03*
X216852500Y-71120000D03*
%TD*%
D10*
%TO.C,MX32*%
X94932500Y-76200000D03*
D11*
X100012500Y-76200000D03*
D10*
X105092500Y-76200000D03*
D12*
X96202500Y-73660000D03*
X102552500Y-71120000D03*
%TD*%
D10*
%TO.C,MX35*%
X152082500Y-76200000D03*
D11*
X157162500Y-76200000D03*
D10*
X162242500Y-76200000D03*
D12*
X153352500Y-73660000D03*
X159702500Y-71120000D03*
%TD*%
D10*
%TO.C,MX5*%
X118745000Y-38100000D03*
D11*
X123825000Y-38100000D03*
D10*
X128905000Y-38100000D03*
D12*
X120015000Y-35560000D03*
X126365000Y-33020000D03*
%TD*%
D13*
%TO.C,REF\u002A\u002A*%
X290480750Y-69215000D03*
D14*
X290480750Y-84425000D03*
D13*
X314356750Y-69215000D03*
D14*
X314356750Y-84425000D03*
%TD*%
D10*
%TO.C,MX7*%
X156845000Y-38100000D03*
D11*
X161925000Y-38100000D03*
D10*
X167005000Y-38100000D03*
D12*
X158115000Y-35560000D03*
X164465000Y-33020000D03*
%TD*%
D10*
%TO.C,MX59*%
X175895000Y-114300000D03*
D11*
X180975000Y-114300000D03*
D10*
X186055000Y-114300000D03*
D12*
X177165000Y-111760000D03*
X183515000Y-109220000D03*
%TD*%
D10*
%TO.C,MX42*%
X297338750Y-76200000D03*
D11*
X302418750Y-76200000D03*
D10*
X307498750Y-76200000D03*
D12*
X298608750Y-73660000D03*
X304958750Y-71120000D03*
%TD*%
D10*
%TO.C,MX2*%
X61595000Y-38100000D03*
D11*
X66675000Y-38100000D03*
D10*
X71755000Y-38100000D03*
D12*
X62865000Y-35560000D03*
X69215000Y-33020000D03*
%TD*%
D10*
%TO.C,MX34*%
X133032500Y-76200000D03*
D11*
X138112500Y-76200000D03*
D10*
X143192500Y-76200000D03*
D12*
X134302500Y-73660000D03*
X140652500Y-71120000D03*
%TD*%
D10*
%TO.C,MX52*%
X237807500Y-95250000D03*
D11*
X242887500Y-95250000D03*
D10*
X247967500Y-95250000D03*
D12*
X239077500Y-92710000D03*
X245427500Y-90170000D03*
%TD*%
D10*
%TO.C,MX36*%
X171132500Y-76200000D03*
D11*
X176212500Y-76200000D03*
D10*
X181292500Y-76200000D03*
D12*
X172402500Y-73660000D03*
X178752500Y-71120000D03*
%TD*%
D10*
%TO.C,MX46*%
X123507500Y-95250000D03*
D11*
X128587500Y-95250000D03*
D10*
X133667500Y-95250000D03*
D12*
X124777500Y-92710000D03*
X131127500Y-90170000D03*
%TD*%
D10*
%TO.C,MX19*%
X109220000Y-57150000D03*
D11*
X114300000Y-57150000D03*
D10*
X119380000Y-57150000D03*
D12*
X110490000Y-54610000D03*
X116840000Y-52070000D03*
%TD*%
D10*
%TO.C,MX8*%
X175895000Y-38100000D03*
D11*
X180975000Y-38100000D03*
D10*
X186055000Y-38100000D03*
D12*
X177165000Y-35560000D03*
X183515000Y-33020000D03*
%TD*%
D10*
%TO.C,MX11*%
X233045000Y-38100000D03*
D11*
X238125000Y-38100000D03*
D10*
X243205000Y-38100000D03*
D12*
X234315000Y-35560000D03*
X240665000Y-33020000D03*
%TD*%
M02*
