%TF.GenerationSoftware,KiCad,Pcbnew,9.0.4*%
%TF.CreationDate,2025-09-04T01:32:36+09:00*%
%TF.ProjectId,Lily60,4c696c79-3630-42e6-9b69-6361645f7063,rev?*%
%TF.SameCoordinates,Original*%
%TF.FileFunction,Paste,Bot*%
%TF.FilePolarity,Positive*%
%FSLAX46Y46*%
G04 Gerber Fmt 4.6, Leading zero omitted, Abs format (unit mm)*
G04 Created by KiCad (PCBNEW 9.0.4) date 2025-09-04 01:32:36*
%MOMM*%
%LPD*%
G01*
G04 APERTURE LIST*
G04 Aperture macros list*
%AMRoundRect*
0 Rectangle with rounded corners*
0 $1 Rounding radius*
0 $2 $3 $4 $5 $6 $7 $8 $9 X,Y pos of 4 corners*
0 Add a 4 corners polygon primitive as box body*
4,1,4,$2,$3,$4,$5,$6,$7,$8,$9,$2,$3,0*
0 Add four circle primitives for the rounded corners*
1,1,$1+$1,$2,$3*
1,1,$1+$1,$4,$5*
1,1,$1+$1,$6,$7*
1,1,$1+$1,$8,$9*
0 Add four rect primitives between the rounded corners*
20,1,$1+$1,$2,$3,$4,$5,0*
20,1,$1+$1,$4,$5,$6,$7,0*
20,1,$1+$1,$6,$7,$8,$9,0*
20,1,$1+$1,$8,$9,$2,$3,0*%
%AMRotRect*
0 Rectangle, with rotation*
0 The origin of the aperture is its center*
0 $1 length*
0 $2 width*
0 $3 Rotation angle, in degrees counterclockwise*
0 Add horizontal line*
21,1,$1,$2,0,0,$3*%
%AMFreePoly0*
4,1,18,-0.700000,0.205000,-0.684395,0.283450,-0.639957,0.349957,-0.573450,0.394395,-0.495000,0.410000,0.495000,0.410000,0.573450,0.394395,0.639957,0.349957,0.684395,0.283450,0.700000,0.205000,0.700000,0.000000,0.290000,-0.410000,-0.495000,-0.410000,-0.573450,-0.394395,-0.639957,-0.349957,-0.684395,-0.283450,-0.700000,-0.205000,-0.700000,0.205000,-0.700000,0.205000,$1*%
G04 Aperture macros list end*
%ADD10RoundRect,0.202500X0.202500X-0.497500X0.202500X0.497500X-0.202500X0.497500X-0.202500X-0.497500X0*%
%ADD11FreePoly0,90.000000*%
%ADD12RoundRect,0.205000X0.205000X-0.495000X0.205000X0.495000X-0.205000X0.495000X-0.205000X-0.495000X0*%
%ADD13RoundRect,0.225000X0.375000X-0.225000X0.375000X0.225000X-0.375000X0.225000X-0.375000X-0.225000X0*%
%ADD14RoundRect,0.140000X-0.021213X0.219203X-0.219203X0.021213X0.021213X-0.219203X0.219203X-0.021213X0*%
%ADD15RoundRect,0.150000X0.150000X-0.587500X0.150000X0.587500X-0.150000X0.587500X-0.150000X-0.587500X0*%
%ADD16RoundRect,0.140000X0.170000X-0.140000X0.170000X0.140000X-0.170000X0.140000X-0.170000X-0.140000X0*%
%ADD17RoundRect,0.140000X0.219203X0.021213X0.021213X0.219203X-0.219203X-0.021213X-0.021213X-0.219203X0*%
%ADD18R,0.750000X1.000000*%
%ADD19RoundRect,0.140000X-0.219203X-0.021213X-0.021213X-0.219203X0.219203X0.021213X0.021213X0.219203X0*%
%ADD20RoundRect,0.140000X0.021213X-0.219203X0.219203X-0.021213X-0.021213X0.219203X-0.219203X0.021213X0*%
%ADD21RoundRect,0.140000X0.140000X0.170000X-0.140000X0.170000X-0.140000X-0.170000X0.140000X-0.170000X0*%
%ADD22RoundRect,0.150000X0.150000X-0.512500X0.150000X0.512500X-0.150000X0.512500X-0.150000X-0.512500X0*%
%ADD23RotRect,1.000000X0.900000X45.000000*%
%ADD24RoundRect,0.140000X-0.140000X-0.170000X0.140000X-0.170000X0.140000X0.170000X-0.140000X0.170000X0*%
%ADD25RoundRect,0.150000X-0.650000X-0.150000X0.650000X-0.150000X0.650000X0.150000X-0.650000X0.150000X0*%
%ADD26RoundRect,0.150000X-0.625000X0.150000X-0.625000X-0.150000X0.625000X-0.150000X0.625000X0.150000X0*%
%ADD27RoundRect,0.250000X-0.650000X0.350000X-0.650000X-0.350000X0.650000X-0.350000X0.650000X0.350000X0*%
%ADD28RoundRect,0.225000X-0.250000X0.225000X-0.250000X-0.225000X0.250000X-0.225000X0.250000X0.225000X0*%
%ADD29RoundRect,0.225000X0.250000X-0.225000X0.250000X0.225000X-0.250000X0.225000X-0.250000X-0.225000X0*%
%ADD30RoundRect,0.250000X0.000000X-0.413257X0.413257X0.000000X0.000000X0.413257X-0.413257X0.000000X0*%
%ADD31RoundRect,0.050000X-0.238649X-0.309359X0.309359X0.238649X0.238649X0.309359X-0.309359X-0.238649X0*%
%ADD32RoundRect,0.050000X0.238649X-0.309359X0.309359X-0.238649X-0.238649X0.309359X-0.309359X0.238649X0*%
G04 APERTURE END LIST*
D10*
%TO.C,D63*%
X302970002Y-114150000D03*
D11*
X302975002Y-108750000D03*
D12*
X301475002Y-108750000D03*
X301475002Y-114150000D03*
%TD*%
D10*
%TO.C,D66*%
X313970001Y-114150001D03*
D11*
X313975001Y-108750001D03*
D12*
X312475001Y-108750001D03*
X312475001Y-114150001D03*
%TD*%
D10*
%TO.C,D64*%
X308470002Y-114150001D03*
D11*
X308475002Y-108750001D03*
D12*
X306975002Y-108750001D03*
X306975002Y-114150001D03*
%TD*%
D13*
%TO.C,D59*%
X186806250Y-120593750D03*
X186806250Y-117293750D03*
%TD*%
D14*
%TO.C,C2*%
X280031569Y-88030601D03*
X279352747Y-88709423D03*
%TD*%
D13*
%TO.C,D12*%
X263006250Y-44393750D03*
X263006250Y-41093750D03*
%TD*%
%TO.C,D24*%
X215381250Y-63443750D03*
X215381250Y-60143750D03*
%TD*%
D14*
%TO.C,C3*%
X280714411Y-88710589D03*
X280035589Y-89389411D03*
%TD*%
D13*
%TO.C,D38*%
X220143750Y-82493750D03*
X220143750Y-79193750D03*
%TD*%
D15*
%TO.C,U2*%
X288212501Y-103562500D03*
X286312501Y-103562500D03*
X287262501Y-101687499D03*
%TD*%
D13*
%TO.C,D49*%
X191568750Y-101543750D03*
X191568750Y-98243750D03*
%TD*%
%TO.C,D19*%
X120131250Y-63443750D03*
X120131250Y-60143750D03*
%TD*%
D16*
%TO.C,C20*%
X312474999Y-116705001D03*
X312474999Y-115745001D03*
%TD*%
D13*
%TO.C,D3*%
X91556250Y-44393750D03*
X91556250Y-41093750D03*
%TD*%
%TO.C,D10*%
X224906250Y-44393750D03*
X224906250Y-41093750D03*
%TD*%
D17*
%TO.C,C9*%
X271081569Y-85609423D03*
X270402747Y-84930601D03*
%TD*%
D13*
%TO.C,D43*%
X65362500Y-101543750D03*
X65362500Y-98243750D03*
%TD*%
%TO.C,D7*%
X167756250Y-44393750D03*
X167756250Y-41093750D03*
%TD*%
%TO.C,D2*%
X72506250Y-44393750D03*
X72506250Y-41093750D03*
%TD*%
%TO.C,D15*%
X320156250Y-44393750D03*
X320156250Y-41093750D03*
%TD*%
D18*
%TO.C,BOOTSEL1*%
X272500000Y-112500000D03*
X272500000Y-118500000D03*
X276250000Y-112500000D03*
X276250000Y-118500000D03*
%TD*%
D13*
%TO.C,D23*%
X196331250Y-63443750D03*
X196331250Y-60143750D03*
%TD*%
D19*
%TO.C,C14*%
X266507467Y-83821554D03*
X267186289Y-84500376D03*
%TD*%
D13*
%TO.C,D17*%
X82031250Y-63443750D03*
X82031250Y-60143750D03*
%TD*%
D16*
%TO.C,C16*%
X283800000Y-108130000D03*
X283800000Y-107170000D03*
%TD*%
D20*
%TO.C,C17*%
X268610589Y-93689411D03*
X269289411Y-93010589D03*
%TD*%
D13*
%TO.C,D42*%
X308250000Y-82493750D03*
X308250000Y-79193750D03*
%TD*%
D21*
%TO.C,R7*%
X282580000Y-87100000D03*
X281620000Y-87100000D03*
%TD*%
D13*
%TO.C,D16*%
X46550000Y-63450000D03*
X46550000Y-60150000D03*
%TD*%
D19*
%TO.C,C11*%
X280302747Y-91555601D03*
X280981569Y-92234423D03*
%TD*%
D22*
%TO.C,U4*%
X134162499Y-48662500D03*
X133212500Y-48662500D03*
X132262501Y-48662500D03*
X132262501Y-46387500D03*
X133212500Y-46387500D03*
X134162499Y-46387500D03*
%TD*%
D14*
%TO.C,C1*%
X277331569Y-85030601D03*
X276652747Y-85709423D03*
%TD*%
D13*
%TO.C,D6*%
X150975000Y-43225000D03*
X150975000Y-39925000D03*
%TD*%
D20*
%TO.C,C7*%
X271577747Y-96434423D03*
X272256569Y-95755601D03*
%TD*%
D16*
%TO.C,R6*%
X276350000Y-110930000D03*
X276350000Y-109970000D03*
%TD*%
D13*
%TO.C,D56*%
X82031250Y-120593750D03*
X82031250Y-117293750D03*
%TD*%
D23*
%TO.C,Y1*%
X267341852Y-82287132D03*
X268862132Y-80766852D03*
X269958148Y-81862868D03*
X268437868Y-83383148D03*
%TD*%
D13*
%TO.C,D45*%
X115368750Y-101543750D03*
X115368750Y-98243750D03*
%TD*%
%TO.C,D33*%
X124893750Y-82493750D03*
X124893750Y-79193750D03*
%TD*%
%TO.C,D50*%
X210618750Y-101543750D03*
X210618750Y-98243750D03*
%TD*%
D24*
%TO.C,C12*%
X287257501Y-100087500D03*
X288217501Y-100087500D03*
%TD*%
D13*
%TO.C,D39*%
X239193750Y-82493750D03*
X239193750Y-79193750D03*
%TD*%
%TO.C,D26*%
X253481250Y-63443750D03*
X253481250Y-60143750D03*
%TD*%
%TO.C,D9*%
X205856250Y-44393750D03*
X205856250Y-41093750D03*
%TD*%
%TO.C,D30*%
X44175000Y-82493750D03*
X44175000Y-79193750D03*
%TD*%
%TO.C,D40*%
X258243750Y-82493750D03*
X258243750Y-79193750D03*
%TD*%
%TO.C,D61*%
X267768750Y-120593750D03*
X267768750Y-117293750D03*
%TD*%
%TO.C,D51*%
X229668750Y-101543750D03*
X229668750Y-98243750D03*
%TD*%
%TO.C,D55*%
X320156250Y-101543750D03*
X320156250Y-98243750D03*
%TD*%
%TO.C,D60*%
X227500000Y-115800000D03*
X227500000Y-112500000D03*
%TD*%
%TO.C,D20*%
X139181250Y-63443750D03*
X139181250Y-60143750D03*
%TD*%
D25*
%TO.C,U3*%
X274525000Y-108130000D03*
X274525000Y-106860000D03*
X274525000Y-105590000D03*
X274525000Y-104320000D03*
X281725000Y-104320000D03*
X281725000Y-105590000D03*
X281725000Y-106860000D03*
X281725000Y-108130000D03*
%TD*%
D16*
%TO.C,R5*%
X277325000Y-110930000D03*
X277325000Y-109970000D03*
%TD*%
D13*
%TO.C,D5*%
X129656250Y-44393750D03*
X129656250Y-41093750D03*
%TD*%
D19*
%TO.C,R4*%
X270499427Y-83117930D03*
X271178249Y-83796752D03*
%TD*%
D13*
%TO.C,D31*%
X86793750Y-82493750D03*
X86793750Y-79193750D03*
%TD*%
%TO.C,D41*%
X277293750Y-82493750D03*
X277293750Y-79193750D03*
%TD*%
%TO.C,D21*%
X158231250Y-63443750D03*
X158231250Y-60143750D03*
%TD*%
%TO.C,D14*%
X301106250Y-44393750D03*
X301106250Y-41093750D03*
%TD*%
D26*
%TO.C,J2*%
X140275000Y-46125000D03*
X140275000Y-47125000D03*
X140275000Y-48125000D03*
X140275000Y-49125000D03*
D27*
X144150000Y-44825000D03*
X144150000Y-50425000D03*
%TD*%
D19*
%TO.C,C6*%
X269727747Y-85605601D03*
X270406569Y-86284423D03*
%TD*%
D13*
%TO.C,D27*%
X272531250Y-63443750D03*
X272531250Y-60143750D03*
%TD*%
%TO.C,D1*%
X53456250Y-44393750D03*
X53456250Y-41093750D03*
%TD*%
%TO.C,D4*%
X110606250Y-44393750D03*
X110606250Y-41093750D03*
%TD*%
%TO.C,D37*%
X201093750Y-82493750D03*
X201093750Y-79193750D03*
%TD*%
%TO.C,D44*%
X96318750Y-101543750D03*
X96318750Y-98243750D03*
%TD*%
D17*
%TO.C,C5*%
X280245980Y-94034423D03*
X279567158Y-93355601D03*
%TD*%
D13*
%TO.C,D54*%
X293962500Y-101543750D03*
X293962500Y-98243750D03*
%TD*%
%TO.C,D47*%
X153468750Y-101543750D03*
X153468750Y-98243750D03*
%TD*%
D28*
%TO.C,R2*%
X281575000Y-98700001D03*
X281575000Y-100250001D03*
%TD*%
D17*
%TO.C,C4*%
X279570980Y-94709423D03*
X278892158Y-94030601D03*
%TD*%
D13*
%TO.C,D36*%
X182043750Y-82493750D03*
X182043750Y-79193750D03*
%TD*%
%TO.C,D35*%
X162993750Y-82493750D03*
X162993750Y-79193750D03*
%TD*%
%TO.C,D8*%
X186806250Y-44393750D03*
X186806250Y-41093750D03*
%TD*%
%TO.C,D52*%
X248718750Y-101543750D03*
X248718750Y-98243750D03*
%TD*%
%TO.C,D62*%
X291581250Y-120593750D03*
X291581250Y-117293750D03*
%TD*%
D19*
%TO.C,C8*%
X280977747Y-90880601D03*
X281656569Y-91559423D03*
%TD*%
D13*
%TO.C,D34*%
X143943750Y-82493750D03*
X143943750Y-79193750D03*
%TD*%
%TO.C,D29*%
X315393750Y-63443750D03*
X315393750Y-60143750D03*
%TD*%
D16*
%TO.C,C19*%
X306975000Y-116705001D03*
X306975000Y-115745001D03*
%TD*%
D21*
%TO.C,R3*%
X46955000Y-81475000D03*
X45995000Y-81475000D03*
%TD*%
D13*
%TO.C,D18*%
X101081250Y-63443750D03*
X101081250Y-60143750D03*
%TD*%
%TO.C,D48*%
X172518750Y-101543750D03*
X172518750Y-98243750D03*
%TD*%
%TO.C,D22*%
X177281250Y-63443750D03*
X177281250Y-60143750D03*
%TD*%
%TO.C,D11*%
X243956250Y-44393750D03*
X243956250Y-41093750D03*
%TD*%
D19*
%TO.C,C10*%
X278217158Y-94705601D03*
X278895980Y-95384423D03*
%TD*%
D13*
%TO.C,D46*%
X134418750Y-101543750D03*
X134418750Y-98243750D03*
%TD*%
%TO.C,D58*%
X151025000Y-119400000D03*
X151025000Y-116100000D03*
%TD*%
D29*
%TO.C,R1*%
X280075000Y-100250000D03*
X280075000Y-98700000D03*
%TD*%
D30*
%TO.C,U1*%
X272878383Y-90293585D03*
X273779944Y-91195146D03*
X273779944Y-89392024D03*
X274681505Y-90293585D03*
D31*
X273187742Y-94562742D03*
X272904899Y-94279899D03*
X272622057Y-93997057D03*
X272339214Y-93714214D03*
X272056371Y-93431371D03*
X271773529Y-93148529D03*
X271490686Y-92865686D03*
X271207843Y-92582843D03*
X270925000Y-92300000D03*
X270642158Y-92017158D03*
X270359315Y-91734315D03*
X270076472Y-91451472D03*
X269793630Y-91168630D03*
X269510787Y-90885787D03*
D32*
X269510787Y-89701383D03*
X269793630Y-89418540D03*
X270076472Y-89135698D03*
X270359315Y-88852855D03*
X270642158Y-88570012D03*
X270925000Y-88287170D03*
X271207843Y-88004327D03*
X271490686Y-87721484D03*
X271773529Y-87438641D03*
X272056371Y-87155799D03*
X272339214Y-86872956D03*
X272622057Y-86590113D03*
X272904899Y-86307271D03*
X273187742Y-86024428D03*
D31*
X274372146Y-86024428D03*
X274654989Y-86307271D03*
X274937831Y-86590113D03*
X275220674Y-86872956D03*
X275503517Y-87155799D03*
X275786359Y-87438641D03*
X276069202Y-87721484D03*
X276352045Y-88004327D03*
X276634888Y-88287170D03*
X276917730Y-88570012D03*
X277200573Y-88852855D03*
X277483416Y-89135698D03*
X277766258Y-89418540D03*
X278049101Y-89701383D03*
D32*
X278049101Y-90885787D03*
X277766258Y-91168630D03*
X277483416Y-91451472D03*
X277200573Y-91734315D03*
X276917730Y-92017158D03*
X276634888Y-92300000D03*
X276352045Y-92582843D03*
X276069202Y-92865686D03*
X275786359Y-93148529D03*
X275503517Y-93431371D03*
X275220674Y-93714214D03*
X274937831Y-93997057D03*
X274654989Y-94279899D03*
X274372146Y-94562742D03*
%TD*%
D13*
%TO.C,D32*%
X105843750Y-82493750D03*
X105843750Y-79193750D03*
%TD*%
D17*
%TO.C,C15*%
X271850000Y-83125000D03*
X271171178Y-82446178D03*
%TD*%
D13*
%TO.C,D28*%
X291581250Y-63443750D03*
X291581250Y-60143750D03*
%TD*%
D24*
%TO.C,C13*%
X286307501Y-105262500D03*
X287267501Y-105262500D03*
%TD*%
D13*
%TO.C,D57*%
X105843750Y-120593750D03*
X105843750Y-117293750D03*
%TD*%
%TO.C,D13*%
X282056250Y-44393750D03*
X282056250Y-41093750D03*
%TD*%
%TO.C,D53*%
X264925000Y-101525000D03*
X264925000Y-98225000D03*
%TD*%
D16*
%TO.C,C18*%
X301475000Y-116705000D03*
X301475000Y-115745000D03*
%TD*%
D13*
%TO.C,D25*%
X234431250Y-63443750D03*
X234431250Y-60143750D03*
%TD*%
M02*
