%TF.GenerationSoftware,KiCad,Pcbnew,9.0.4*%
%TF.CreationDate,2025-09-04T01:32:36+09:00*%
%TF.ProjectId,Lily60,4c696c79-3630-42e6-9b69-6361645f7063,rev?*%
%TF.SameCoordinates,Original*%
%TF.FileFunction,Legend,Top*%
%TF.FilePolarity,Positive*%
%FSLAX46Y46*%
G04 Gerber Fmt 4.6, Leading zero omitted, Abs format (unit mm)*
G04 Created by KiCad (PCBNEW 9.0.4) date 2025-09-04 01:32:36*
%MOMM*%
%LPD*%
G01*
G04 APERTURE LIST*
%ADD10C,0.007055*%
G04 APERTURE END LIST*
D10*
%TO.C,REF\u002A\u002A*%
X56780333Y-111270578D02*
X56784301Y-111285905D01*
X56784186Y-111304142D01*
X56780206Y-111324967D01*
X56772580Y-111348059D01*
X56761526Y-111373094D01*
X56747261Y-111399752D01*
X56730004Y-111427710D01*
X56709972Y-111456646D01*
X56687384Y-111486238D01*
X56635411Y-111546103D01*
X56575828Y-111604730D01*
X56543727Y-111632774D01*
X56510378Y-111659542D01*
X56475999Y-111684712D01*
X56440807Y-111707964D01*
X56405021Y-111728973D01*
X56368859Y-111747419D01*
X56332537Y-111762980D01*
X56296276Y-111775333D01*
X56260291Y-111784156D01*
X56224803Y-111789129D01*
X56190028Y-111789927D01*
X56156184Y-111786231D01*
X56123490Y-111777717D01*
X56092163Y-111764064D01*
X56062422Y-111744949D01*
X56034484Y-111720052D01*
X56008568Y-111689049D01*
X55984891Y-111651618D01*
X56124788Y-111691186D01*
X56133264Y-111693350D01*
X56141799Y-111695069D01*
X56150378Y-111696346D01*
X56158984Y-111697183D01*
X56167599Y-111697582D01*
X56176208Y-111697546D01*
X56184794Y-111697076D01*
X56193341Y-111696174D01*
X56201831Y-111694843D01*
X56210248Y-111693085D01*
X56218576Y-111690902D01*
X56226798Y-111688297D01*
X56234897Y-111685270D01*
X56242858Y-111681825D01*
X56250662Y-111677964D01*
X56258295Y-111673688D01*
X56363831Y-111628321D01*
X56374957Y-111623388D01*
X56385961Y-111618201D01*
X56396837Y-111612761D01*
X56407582Y-111607071D01*
X56418193Y-111601134D01*
X56428664Y-111594950D01*
X56438993Y-111588522D01*
X56449175Y-111581853D01*
X56534251Y-111524717D01*
X56543608Y-111518834D01*
X56553065Y-111512280D01*
X56562583Y-111505122D01*
X56572122Y-111497428D01*
X56581644Y-111489268D01*
X56591109Y-111480710D01*
X56600479Y-111471820D01*
X56609714Y-111462669D01*
X56618775Y-111453324D01*
X56627623Y-111443852D01*
X56636220Y-111434324D01*
X56644527Y-111424806D01*
X56660111Y-111406075D01*
X56674064Y-111388206D01*
X56772065Y-111258483D01*
X56780333Y-111270578D01*
G36*
X56780333Y-111270578D02*
G01*
X56784301Y-111285905D01*
X56784186Y-111304142D01*
X56780206Y-111324967D01*
X56772580Y-111348059D01*
X56761526Y-111373094D01*
X56747261Y-111399752D01*
X56730004Y-111427710D01*
X56709972Y-111456646D01*
X56687384Y-111486238D01*
X56635411Y-111546103D01*
X56575828Y-111604730D01*
X56543727Y-111632774D01*
X56510378Y-111659542D01*
X56475999Y-111684712D01*
X56440807Y-111707964D01*
X56405021Y-111728973D01*
X56368859Y-111747419D01*
X56332537Y-111762980D01*
X56296276Y-111775333D01*
X56260291Y-111784156D01*
X56224803Y-111789129D01*
X56190028Y-111789927D01*
X56156184Y-111786231D01*
X56123490Y-111777717D01*
X56092163Y-111764064D01*
X56062422Y-111744949D01*
X56034484Y-111720052D01*
X56008568Y-111689049D01*
X55984891Y-111651618D01*
X56124788Y-111691186D01*
X56133264Y-111693350D01*
X56141799Y-111695069D01*
X56150378Y-111696346D01*
X56158984Y-111697183D01*
X56167599Y-111697582D01*
X56176208Y-111697546D01*
X56184794Y-111697076D01*
X56193341Y-111696174D01*
X56201831Y-111694843D01*
X56210248Y-111693085D01*
X56218576Y-111690902D01*
X56226798Y-111688297D01*
X56234897Y-111685270D01*
X56242858Y-111681825D01*
X56250662Y-111677964D01*
X56258295Y-111673688D01*
X56363831Y-111628321D01*
X56374957Y-111623388D01*
X56385961Y-111618201D01*
X56396837Y-111612761D01*
X56407582Y-111607071D01*
X56418193Y-111601134D01*
X56428664Y-111594950D01*
X56438993Y-111588522D01*
X56449175Y-111581853D01*
X56534251Y-111524717D01*
X56543608Y-111518834D01*
X56553065Y-111512280D01*
X56562583Y-111505122D01*
X56572122Y-111497428D01*
X56581644Y-111489268D01*
X56591109Y-111480710D01*
X56600479Y-111471820D01*
X56609714Y-111462669D01*
X56618775Y-111453324D01*
X56627623Y-111443852D01*
X56636220Y-111434324D01*
X56644527Y-111424806D01*
X56660111Y-111406075D01*
X56674064Y-111388206D01*
X56772065Y-111258483D01*
X56780333Y-111270578D01*
G37*
%TD*%
M02*
