%TF.GenerationSoftware,KiCad,Pcbnew,9.0.4*%
%TF.CreationDate,2025-09-04T01:32:36+09:00*%
%TF.ProjectId,Lily60,4c696c79-3630-42e6-9b69-6361645f7063,rev?*%
%TF.SameCoordinates,Original*%
%TF.FileFunction,Soldermask,Bot*%
%TF.FilePolarity,Negative*%
%FSLAX46Y46*%
G04 Gerber Fmt 4.6, Leading zero omitted, Abs format (unit mm)*
G04 Created by KiCad (PCBNEW 9.0.4) date 2025-09-04 01:32:36*
%MOMM*%
%LPD*%
G01*
G04 APERTURE LIST*
G04 Aperture macros list*
%AMRoundRect*
0 Rectangle with rounded corners*
0 $1 Rounding radius*
0 $2 $3 $4 $5 $6 $7 $8 $9 X,Y pos of 4 corners*
0 Add a 4 corners polygon primitive as box body*
4,1,4,$2,$3,$4,$5,$6,$7,$8,$9,$2,$3,0*
0 Add four circle primitives for the rounded corners*
1,1,$1+$1,$2,$3*
1,1,$1+$1,$4,$5*
1,1,$1+$1,$6,$7*
1,1,$1+$1,$8,$9*
0 Add four rect primitives between the rounded corners*
20,1,$1+$1,$2,$3,$4,$5,0*
20,1,$1+$1,$4,$5,$6,$7,0*
20,1,$1+$1,$6,$7,$8,$9,0*
20,1,$1+$1,$8,$9,$2,$3,0*%
%AMRotRect*
0 Rectangle, with rotation*
0 The origin of the aperture is its center*
0 $1 length*
0 $2 width*
0 $3 Rotation angle, in degrees counterclockwise*
0 Add horizontal line*
21,1,$1,$2,0,0,$3*%
%AMFreePoly0*
4,1,18,-0.700000,0.205000,-0.684395,0.283450,-0.639957,0.349957,-0.573450,0.394395,-0.495000,0.410000,0.495000,0.410000,0.573450,0.394395,0.639957,0.349957,0.684395,0.283450,0.700000,0.205000,0.700000,0.000000,0.290000,-0.410000,-0.495000,-0.410000,-0.573450,-0.394395,-0.639957,-0.349957,-0.684395,-0.283450,-0.700000,-0.205000,-0.700000,0.205000,-0.700000,0.205000,$1*%
G04 Aperture macros list end*
%ADD10C,1.750000*%
%ADD11C,4.000000*%
%ADD12C,2.500000*%
%ADD13C,3.048000*%
%ADD14C,3.987800*%
%ADD15RoundRect,0.202500X0.202500X-0.497500X0.202500X0.497500X-0.202500X0.497500X-0.202500X-0.497500X0*%
%ADD16FreePoly0,90.000000*%
%ADD17RoundRect,0.205000X0.205000X-0.495000X0.205000X0.495000X-0.205000X0.495000X-0.205000X-0.495000X0*%
%ADD18C,1.690600*%
%ADD19R,1.690600X1.690600*%
%ADD20RoundRect,0.225000X0.375000X-0.225000X0.375000X0.225000X-0.375000X0.225000X-0.375000X-0.225000X0*%
%ADD21RoundRect,0.140000X-0.021213X0.219203X-0.219203X0.021213X0.021213X-0.219203X0.219203X-0.021213X0*%
%ADD22RoundRect,0.150000X0.150000X-0.587500X0.150000X0.587500X-0.150000X0.587500X-0.150000X-0.587500X0*%
%ADD23RoundRect,0.140000X0.170000X-0.140000X0.170000X0.140000X-0.170000X0.140000X-0.170000X-0.140000X0*%
%ADD24RoundRect,0.140000X0.219203X0.021213X0.021213X0.219203X-0.219203X-0.021213X-0.021213X-0.219203X0*%
%ADD25R,0.750000X1.000000*%
%ADD26RoundRect,0.140000X-0.219203X-0.021213X-0.021213X-0.219203X0.219203X0.021213X0.021213X0.219203X0*%
%ADD27RoundRect,0.140000X0.021213X-0.219203X0.219203X-0.021213X-0.021213X0.219203X-0.219203X0.021213X0*%
%ADD28RoundRect,0.140000X0.140000X0.170000X-0.140000X0.170000X-0.140000X-0.170000X0.140000X-0.170000X0*%
%ADD29RoundRect,0.150000X0.150000X-0.512500X0.150000X0.512500X-0.150000X0.512500X-0.150000X-0.512500X0*%
%ADD30RotRect,1.000000X0.900000X45.000000*%
%ADD31RoundRect,0.140000X-0.140000X-0.170000X0.140000X-0.170000X0.140000X0.170000X-0.140000X0.170000X0*%
%ADD32RoundRect,0.150000X-0.650000X-0.150000X0.650000X-0.150000X0.650000X0.150000X-0.650000X0.150000X0*%
%ADD33RoundRect,0.150000X-0.625000X0.150000X-0.625000X-0.150000X0.625000X-0.150000X0.625000X0.150000X0*%
%ADD34RoundRect,0.250000X-0.650000X0.350000X-0.650000X-0.350000X0.650000X-0.350000X0.650000X0.350000X0*%
%ADD35RoundRect,0.225000X-0.250000X0.225000X-0.250000X-0.225000X0.250000X-0.225000X0.250000X0.225000X0*%
%ADD36RoundRect,0.225000X0.250000X-0.225000X0.250000X0.225000X-0.250000X0.225000X-0.250000X-0.225000X0*%
%ADD37RoundRect,0.050000X-0.238649X-0.309359X0.309359X0.238649X0.238649X0.309359X-0.309359X-0.238649X0*%
%ADD38RoundRect,0.050000X0.238649X-0.309359X0.309359X-0.238649X-0.238649X0.309359X-0.309359X0.238649X0*%
%ADD39RoundRect,0.144000X0.000000X-2.059095X2.059095X0.000000X0.000000X2.059095X-2.059095X0.000000X0*%
G04 APERTURE END LIST*
D10*
%TO.C,MX51*%
X218757500Y-95250000D03*
D11*
X223837500Y-95250000D03*
D10*
X228917500Y-95250000D03*
D12*
X220027500Y-92710000D03*
X226377500Y-90170000D03*
%TD*%
D10*
%TO.C,MX29*%
X304482500Y-57150000D03*
D11*
X309562500Y-57150000D03*
D10*
X314642500Y-57150000D03*
D12*
X305752500Y-54610000D03*
X312102500Y-52070000D03*
%TD*%
D10*
%TO.C,MX18*%
X90170000Y-57150000D03*
D11*
X95250000Y-57150000D03*
D10*
X100330000Y-57150000D03*
D12*
X91440000Y-54610000D03*
X97790000Y-52070000D03*
%TD*%
D13*
%TO.C,REF\u002A\u002A*%
X47593250Y-88265000D03*
D14*
X47593250Y-103475000D03*
D13*
X71469250Y-88265000D03*
D14*
X71469250Y-103475000D03*
%TD*%
D10*
%TO.C,MX16*%
X47307500Y-57150000D03*
D11*
X52387500Y-57150000D03*
D10*
X57467500Y-57150000D03*
D12*
X48577500Y-54610000D03*
X54927500Y-52070000D03*
%TD*%
D10*
%TO.C,MX33*%
X113982500Y-76200000D03*
D11*
X119062500Y-76200000D03*
D10*
X124142500Y-76200000D03*
D12*
X115252500Y-73660000D03*
X121602500Y-71120000D03*
%TD*%
D10*
%TO.C,MX31*%
X75882500Y-76200000D03*
D11*
X80962500Y-76200000D03*
D10*
X86042500Y-76200000D03*
D12*
X77152500Y-73660000D03*
X83502500Y-71120000D03*
%TD*%
D10*
%TO.C,MX1*%
X42545000Y-38100000D03*
D11*
X47625000Y-38100000D03*
D10*
X52705000Y-38100000D03*
D12*
X43815000Y-35560000D03*
X50165000Y-33020000D03*
%TD*%
D13*
%TO.C,REF\u002A\u002A*%
X292862000Y-31115000D03*
D14*
X292862000Y-46325000D03*
D13*
X316738000Y-31115000D03*
D14*
X316738000Y-46325000D03*
%TD*%
D10*
%TO.C,MX12*%
X252095000Y-38100000D03*
D11*
X257175000Y-38100000D03*
D10*
X262255000Y-38100000D03*
D12*
X253365000Y-35560000D03*
X259715000Y-33020000D03*
%TD*%
D10*
%TO.C,MX61*%
X256857500Y-114300000D03*
D11*
X261937500Y-114300000D03*
D10*
X267017500Y-114300000D03*
D12*
X258127500Y-111760000D03*
X264477500Y-109220000D03*
%TD*%
D10*
%TO.C,MX4*%
X99695000Y-38100000D03*
D11*
X104775000Y-38100000D03*
D10*
X109855000Y-38100000D03*
D12*
X100965000Y-35560000D03*
X107315000Y-33020000D03*
%TD*%
D10*
%TO.C,MX58*%
X137795000Y-114300000D03*
D11*
X142875000Y-114300000D03*
D10*
X147955000Y-114300000D03*
D12*
X139065000Y-111760000D03*
X145415000Y-109220000D03*
%TD*%
D10*
%TO.C,MX54*%
X283051250Y-95250000D03*
D11*
X288131250Y-95250000D03*
D10*
X293211250Y-95250000D03*
D12*
X284321250Y-92710000D03*
X290671250Y-90170000D03*
%TD*%
D10*
%TO.C,MX20*%
X128270000Y-57150000D03*
D11*
X133350000Y-57150000D03*
D10*
X138430000Y-57150000D03*
D12*
X129540000Y-54610000D03*
X135890000Y-52070000D03*
%TD*%
D10*
%TO.C,MX9*%
X194945000Y-38100000D03*
D11*
X200025000Y-38100000D03*
D10*
X205105000Y-38100000D03*
D12*
X196215000Y-35560000D03*
X202565000Y-33020000D03*
%TD*%
D10*
%TO.C,MX23*%
X185420000Y-57150000D03*
D11*
X190500000Y-57150000D03*
D10*
X195580000Y-57150000D03*
D12*
X186690000Y-54610000D03*
X193040000Y-52070000D03*
%TD*%
D10*
%TO.C,MX17*%
X71120000Y-57150000D03*
D11*
X76200000Y-57150000D03*
D10*
X81280000Y-57150000D03*
D12*
X72390000Y-54610000D03*
X78740000Y-52070000D03*
%TD*%
D10*
%TO.C,MX39*%
X228282500Y-76200000D03*
D11*
X233362500Y-76200000D03*
D10*
X238442500Y-76200000D03*
D12*
X229552500Y-73660000D03*
X235902500Y-71120000D03*
%TD*%
D15*
%TO.C,D63*%
X302970002Y-114150000D03*
D16*
X302975002Y-108750000D03*
D17*
X301475002Y-108750000D03*
X301475002Y-114150000D03*
%TD*%
D10*
%TO.C,MX14*%
X290195000Y-38100000D03*
D11*
X295275000Y-38100000D03*
D10*
X300355000Y-38100000D03*
D12*
X291465000Y-35560000D03*
X297815000Y-33020000D03*
%TD*%
D10*
%TO.C,MX48*%
X161607500Y-95250000D03*
D11*
X166687500Y-95250000D03*
D10*
X171767500Y-95250000D03*
D12*
X162877500Y-92710000D03*
X169227500Y-90170000D03*
%TD*%
D10*
%TO.C,MX27*%
X261620000Y-57150000D03*
D11*
X266700000Y-57150000D03*
D10*
X271780000Y-57150000D03*
D12*
X262890000Y-54610000D03*
X269240000Y-52070000D03*
%TD*%
D10*
%TO.C,MX22*%
X166370000Y-57150000D03*
D11*
X171450000Y-57150000D03*
D10*
X176530000Y-57150000D03*
D12*
X167640000Y-54610000D03*
X173990000Y-52070000D03*
%TD*%
D10*
%TO.C,MX45*%
X104457500Y-95250000D03*
D11*
X109537500Y-95250000D03*
D10*
X114617500Y-95250000D03*
D12*
X105727500Y-92710000D03*
X112077500Y-90170000D03*
%TD*%
D10*
%TO.C,MX21*%
X147320000Y-57150000D03*
D11*
X152400000Y-57150000D03*
D10*
X157480000Y-57150000D03*
D12*
X148590000Y-54610000D03*
X154940000Y-52070000D03*
%TD*%
D15*
%TO.C,D66*%
X313970001Y-114150001D03*
D16*
X313975001Y-108750001D03*
D17*
X312475001Y-108750001D03*
X312475001Y-114150001D03*
%TD*%
D10*
%TO.C,MX37*%
X190182500Y-76200000D03*
D11*
X195262500Y-76200000D03*
D10*
X200342500Y-76200000D03*
D12*
X191452500Y-73660000D03*
X197802500Y-71120000D03*
%TD*%
D10*
%TO.C,MX47*%
X142557500Y-95250000D03*
D11*
X147637500Y-95250000D03*
D10*
X152717500Y-95250000D03*
D12*
X143827500Y-92710000D03*
X150177500Y-90170000D03*
%TD*%
D13*
%TO.C,REF\u002A\u002A*%
X238125000Y-121285000D03*
D14*
X238125000Y-106075000D03*
D13*
X200025000Y-121285000D03*
D14*
X200025000Y-106075000D03*
%TD*%
D10*
%TO.C,MX25*%
X223520000Y-57150000D03*
D11*
X228600000Y-57150000D03*
D10*
X233680000Y-57150000D03*
D12*
X224790000Y-54610000D03*
X231140000Y-52070000D03*
%TD*%
D10*
%TO.C,MX62*%
X280670000Y-114300000D03*
D11*
X285750000Y-114300000D03*
D10*
X290830000Y-114300000D03*
D12*
X281940000Y-111760000D03*
X288290000Y-109220000D03*
%TD*%
D10*
%TO.C,MX26*%
X242570000Y-57150000D03*
D11*
X247650000Y-57150000D03*
D10*
X252730000Y-57150000D03*
D12*
X243840000Y-54610000D03*
X250190000Y-52070000D03*
%TD*%
D10*
%TO.C,MX49*%
X180657500Y-95250000D03*
D11*
X185737500Y-95250000D03*
D10*
X190817500Y-95250000D03*
D12*
X181927500Y-92710000D03*
X188277500Y-90170000D03*
%TD*%
D10*
%TO.C,MX60*%
X213995000Y-114300000D03*
D11*
X219075000Y-114300000D03*
D10*
X224155000Y-114300000D03*
D12*
X215265000Y-111760000D03*
X221615000Y-109220000D03*
%TD*%
D10*
%TO.C,MX44*%
X85407500Y-95250000D03*
D11*
X90487500Y-95250000D03*
D10*
X95567500Y-95250000D03*
D12*
X86677500Y-92710000D03*
X93027500Y-90170000D03*
%TD*%
D10*
%TO.C,MX40*%
X247332500Y-76200000D03*
D11*
X252412500Y-76200000D03*
D10*
X257492500Y-76200000D03*
D12*
X248602500Y-73660000D03*
X254952500Y-71120000D03*
%TD*%
D10*
%TO.C,MX43*%
X54451250Y-95250000D03*
D11*
X59531250Y-95250000D03*
D10*
X64611250Y-95250000D03*
D12*
X55721250Y-92710000D03*
X62071250Y-90170000D03*
%TD*%
D10*
%TO.C,MX55*%
X309245000Y-95250000D03*
D11*
X314325000Y-95250000D03*
D10*
X319405000Y-95250000D03*
D12*
X310515000Y-92710000D03*
X316865000Y-90170000D03*
%TD*%
D10*
%TO.C,MX53*%
X256857500Y-95250000D03*
D11*
X261937500Y-95250000D03*
D10*
X267017500Y-95250000D03*
D12*
X258127500Y-92710000D03*
X264477500Y-90170000D03*
%TD*%
D10*
%TO.C,MX56*%
X71120000Y-114300000D03*
D11*
X76200000Y-114300000D03*
D10*
X81280000Y-114300000D03*
D12*
X72390000Y-111760000D03*
X78740000Y-109220000D03*
%TD*%
D10*
%TO.C,MX10*%
X213995000Y-38100000D03*
D11*
X219075000Y-38100000D03*
D10*
X224155000Y-38100000D03*
D12*
X215265000Y-35560000D03*
X221615000Y-33020000D03*
%TD*%
D10*
%TO.C,MX24*%
X204470000Y-57150000D03*
D11*
X209550000Y-57150000D03*
D10*
X214630000Y-57150000D03*
D12*
X205740000Y-54610000D03*
X212090000Y-52070000D03*
%TD*%
D10*
%TO.C,MX6*%
X137795000Y-38100000D03*
D11*
X142875000Y-38100000D03*
D10*
X147955000Y-38100000D03*
D12*
X139065000Y-35560000D03*
X145415000Y-33020000D03*
%TD*%
D10*
%TO.C,MX50*%
X199707500Y-95250000D03*
D11*
X204787500Y-95250000D03*
D10*
X209867500Y-95250000D03*
D12*
X200977500Y-92710000D03*
X207327500Y-90170000D03*
%TD*%
D10*
%TO.C,MX28*%
X280670000Y-57150000D03*
D11*
X285750000Y-57150000D03*
D10*
X290830000Y-57150000D03*
D12*
X281940000Y-54610000D03*
X288290000Y-52070000D03*
%TD*%
D10*
%TO.C,MX15*%
X299720000Y-38100000D03*
D11*
X304800000Y-38100000D03*
D10*
X309245000Y-38100000D03*
X309880000Y-38100000D03*
D11*
X314325000Y-38100000D03*
D10*
X319405000Y-38100000D03*
D12*
X300990000Y-35560000D03*
X310515000Y-35560000D03*
X307340000Y-33020000D03*
X316865000Y-33020000D03*
%TD*%
D10*
%TO.C,MX41*%
X266382500Y-76200000D03*
D11*
X271462500Y-76200000D03*
D10*
X276542500Y-76200000D03*
D12*
X267652500Y-73660000D03*
X274002500Y-71120000D03*
%TD*%
D10*
%TO.C,MX13*%
X271145000Y-38100000D03*
D11*
X276225000Y-38100000D03*
D10*
X281305000Y-38100000D03*
D12*
X272415000Y-35560000D03*
X278765000Y-33020000D03*
%TD*%
D13*
%TO.C,REF\u002A\u002A*%
X161925000Y-121285000D03*
D14*
X161925000Y-106075000D03*
D13*
X123825000Y-121285000D03*
D14*
X123825000Y-106075000D03*
%TD*%
D10*
%TO.C,MX3*%
X80645000Y-38100000D03*
D11*
X85725000Y-38100000D03*
D10*
X90805000Y-38100000D03*
D12*
X81915000Y-35560000D03*
X88265000Y-33020000D03*
%TD*%
D18*
%TO.C,D65*%
X51276250Y-81280000D03*
X53498750Y-81280000D03*
D19*
X48736250Y-81280000D03*
X56038750Y-81280000D03*
%TD*%
D10*
%TO.C,MX57*%
X94932500Y-114300000D03*
D11*
X100012500Y-114300000D03*
D10*
X105092500Y-114300000D03*
D12*
X96202500Y-111760000D03*
X102552500Y-109220000D03*
%TD*%
D10*
%TO.C,MX30*%
X44926250Y-76200000D03*
D11*
X50006250Y-76200000D03*
X54768750Y-76200000D03*
D10*
X59848750Y-76200000D03*
D12*
X46196250Y-73660000D03*
X50958750Y-73660000D03*
X52546250Y-71120000D03*
X57308750Y-71120000D03*
%TD*%
D10*
%TO.C,MX38*%
X209232500Y-76200000D03*
D11*
X214312500Y-76200000D03*
D10*
X219392500Y-76200000D03*
D12*
X210502500Y-73660000D03*
X216852500Y-71120000D03*
%TD*%
D10*
%TO.C,MX32*%
X94932500Y-76200000D03*
D11*
X100012500Y-76200000D03*
D10*
X105092500Y-76200000D03*
D12*
X96202500Y-73660000D03*
X102552500Y-71120000D03*
%TD*%
D10*
%TO.C,MX35*%
X152082500Y-76200000D03*
D11*
X157162500Y-76200000D03*
D10*
X162242500Y-76200000D03*
D12*
X153352500Y-73660000D03*
X159702500Y-71120000D03*
%TD*%
D10*
%TO.C,MX5*%
X118745000Y-38100000D03*
D11*
X123825000Y-38100000D03*
D10*
X128905000Y-38100000D03*
D12*
X120015000Y-35560000D03*
X126365000Y-33020000D03*
%TD*%
D13*
%TO.C,REF\u002A\u002A*%
X290480750Y-69215000D03*
D14*
X290480750Y-84425000D03*
D13*
X314356750Y-69215000D03*
D14*
X314356750Y-84425000D03*
%TD*%
D10*
%TO.C,MX7*%
X156845000Y-38100000D03*
D11*
X161925000Y-38100000D03*
D10*
X167005000Y-38100000D03*
D12*
X158115000Y-35560000D03*
X164465000Y-33020000D03*
%TD*%
D10*
%TO.C,MX59*%
X175895000Y-114300000D03*
D11*
X180975000Y-114300000D03*
D10*
X186055000Y-114300000D03*
D12*
X177165000Y-111760000D03*
X183515000Y-109220000D03*
%TD*%
D10*
%TO.C,MX42*%
X297338750Y-76200000D03*
D11*
X302418750Y-76200000D03*
D10*
X307498750Y-76200000D03*
D12*
X298608750Y-73660000D03*
X304958750Y-71120000D03*
%TD*%
D10*
%TO.C,MX2*%
X61595000Y-38100000D03*
D11*
X66675000Y-38100000D03*
D10*
X71755000Y-38100000D03*
D12*
X62865000Y-35560000D03*
X69215000Y-33020000D03*
%TD*%
D10*
%TO.C,MX34*%
X133032500Y-76200000D03*
D11*
X138112500Y-76200000D03*
D10*
X143192500Y-76200000D03*
D12*
X134302500Y-73660000D03*
X140652500Y-71120000D03*
%TD*%
D10*
%TO.C,MX52*%
X237807500Y-95250000D03*
D11*
X242887500Y-95250000D03*
D10*
X247967500Y-95250000D03*
D12*
X239077500Y-92710000D03*
X245427500Y-90170000D03*
%TD*%
D10*
%TO.C,MX36*%
X171132500Y-76200000D03*
D11*
X176212500Y-76200000D03*
D10*
X181292500Y-76200000D03*
D12*
X172402500Y-73660000D03*
X178752500Y-71120000D03*
%TD*%
D10*
%TO.C,MX46*%
X123507500Y-95250000D03*
D11*
X128587500Y-95250000D03*
D10*
X133667500Y-95250000D03*
D12*
X124777500Y-92710000D03*
X131127500Y-90170000D03*
%TD*%
D10*
%TO.C,MX19*%
X109220000Y-57150000D03*
D11*
X114300000Y-57150000D03*
D10*
X119380000Y-57150000D03*
D12*
X110490000Y-54610000D03*
X116840000Y-52070000D03*
%TD*%
D10*
%TO.C,MX8*%
X175895000Y-38100000D03*
D11*
X180975000Y-38100000D03*
D10*
X186055000Y-38100000D03*
D12*
X177165000Y-35560000D03*
X183515000Y-33020000D03*
%TD*%
D15*
%TO.C,D64*%
X308470002Y-114150001D03*
D16*
X308475002Y-108750001D03*
D17*
X306975002Y-108750001D03*
X306975002Y-114150001D03*
%TD*%
D10*
%TO.C,MX11*%
X233045000Y-38100000D03*
D11*
X238125000Y-38100000D03*
D10*
X243205000Y-38100000D03*
D12*
X234315000Y-35560000D03*
X240665000Y-33020000D03*
%TD*%
D20*
%TO.C,D59*%
X186806250Y-120593750D03*
X186806250Y-117293750D03*
%TD*%
D21*
%TO.C,C2*%
X280031569Y-88030601D03*
X279352747Y-88709423D03*
%TD*%
D20*
%TO.C,D12*%
X263006250Y-44393750D03*
X263006250Y-41093750D03*
%TD*%
%TO.C,D24*%
X215381250Y-63443750D03*
X215381250Y-60143750D03*
%TD*%
D21*
%TO.C,C3*%
X280714411Y-88710589D03*
X280035589Y-89389411D03*
%TD*%
D20*
%TO.C,D38*%
X220143750Y-82493750D03*
X220143750Y-79193750D03*
%TD*%
D22*
%TO.C,U2*%
X288212501Y-103562500D03*
X286312501Y-103562500D03*
X287262501Y-101687499D03*
%TD*%
D20*
%TO.C,D49*%
X191568750Y-101543750D03*
X191568750Y-98243750D03*
%TD*%
%TO.C,D19*%
X120131250Y-63443750D03*
X120131250Y-60143750D03*
%TD*%
D23*
%TO.C,C20*%
X312474999Y-116705001D03*
X312474999Y-115745001D03*
%TD*%
D20*
%TO.C,D3*%
X91556250Y-44393750D03*
X91556250Y-41093750D03*
%TD*%
%TO.C,D10*%
X224906250Y-44393750D03*
X224906250Y-41093750D03*
%TD*%
D24*
%TO.C,C9*%
X271081569Y-85609423D03*
X270402747Y-84930601D03*
%TD*%
D20*
%TO.C,D43*%
X65362500Y-101543750D03*
X65362500Y-98243750D03*
%TD*%
%TO.C,D7*%
X167756250Y-44393750D03*
X167756250Y-41093750D03*
%TD*%
%TO.C,D2*%
X72506250Y-44393750D03*
X72506250Y-41093750D03*
%TD*%
%TO.C,D15*%
X320156250Y-44393750D03*
X320156250Y-41093750D03*
%TD*%
D25*
%TO.C,BOOTSEL1*%
X272500000Y-112500000D03*
X272500000Y-118500000D03*
X276250000Y-112500000D03*
X276250000Y-118500000D03*
%TD*%
D20*
%TO.C,D23*%
X196331250Y-63443750D03*
X196331250Y-60143750D03*
%TD*%
D26*
%TO.C,C14*%
X266507467Y-83821554D03*
X267186289Y-84500376D03*
%TD*%
D20*
%TO.C,D17*%
X82031250Y-63443750D03*
X82031250Y-60143750D03*
%TD*%
D23*
%TO.C,C16*%
X283800000Y-108130000D03*
X283800000Y-107170000D03*
%TD*%
D27*
%TO.C,C17*%
X268610589Y-93689411D03*
X269289411Y-93010589D03*
%TD*%
D20*
%TO.C,D42*%
X308250000Y-82493750D03*
X308250000Y-79193750D03*
%TD*%
D28*
%TO.C,R7*%
X282580000Y-87100000D03*
X281620000Y-87100000D03*
%TD*%
D20*
%TO.C,D16*%
X46550000Y-63450000D03*
X46550000Y-60150000D03*
%TD*%
D26*
%TO.C,C11*%
X280302747Y-91555601D03*
X280981569Y-92234423D03*
%TD*%
D29*
%TO.C,U4*%
X134162499Y-48662500D03*
X133212500Y-48662500D03*
X132262501Y-48662500D03*
X132262501Y-46387500D03*
X133212500Y-46387500D03*
X134162499Y-46387500D03*
%TD*%
D21*
%TO.C,C1*%
X277331569Y-85030601D03*
X276652747Y-85709423D03*
%TD*%
D20*
%TO.C,D6*%
X150975000Y-43225000D03*
X150975000Y-39925000D03*
%TD*%
D27*
%TO.C,C7*%
X271577747Y-96434423D03*
X272256569Y-95755601D03*
%TD*%
D23*
%TO.C,R6*%
X276350000Y-110930000D03*
X276350000Y-109970000D03*
%TD*%
D20*
%TO.C,D56*%
X82031250Y-120593750D03*
X82031250Y-117293750D03*
%TD*%
D30*
%TO.C,Y1*%
X267341852Y-82287132D03*
X268862132Y-80766852D03*
X269958148Y-81862868D03*
X268437868Y-83383148D03*
%TD*%
D20*
%TO.C,D45*%
X115368750Y-101543750D03*
X115368750Y-98243750D03*
%TD*%
%TO.C,D33*%
X124893750Y-82493750D03*
X124893750Y-79193750D03*
%TD*%
%TO.C,D50*%
X210618750Y-101543750D03*
X210618750Y-98243750D03*
%TD*%
D31*
%TO.C,C12*%
X287257501Y-100087500D03*
X288217501Y-100087500D03*
%TD*%
D20*
%TO.C,D39*%
X239193750Y-82493750D03*
X239193750Y-79193750D03*
%TD*%
%TO.C,D26*%
X253481250Y-63443750D03*
X253481250Y-60143750D03*
%TD*%
%TO.C,D9*%
X205856250Y-44393750D03*
X205856250Y-41093750D03*
%TD*%
%TO.C,D30*%
X44175000Y-82493750D03*
X44175000Y-79193750D03*
%TD*%
%TO.C,D40*%
X258243750Y-82493750D03*
X258243750Y-79193750D03*
%TD*%
%TO.C,D61*%
X267768750Y-120593750D03*
X267768750Y-117293750D03*
%TD*%
%TO.C,D51*%
X229668750Y-101543750D03*
X229668750Y-98243750D03*
%TD*%
%TO.C,D55*%
X320156250Y-101543750D03*
X320156250Y-98243750D03*
%TD*%
%TO.C,D60*%
X227500000Y-115800000D03*
X227500000Y-112500000D03*
%TD*%
%TO.C,D20*%
X139181250Y-63443750D03*
X139181250Y-60143750D03*
%TD*%
D32*
%TO.C,U3*%
X274525000Y-108130000D03*
X274525000Y-106860000D03*
X274525000Y-105590000D03*
X274525000Y-104320000D03*
X281725000Y-104320000D03*
X281725000Y-105590000D03*
X281725000Y-106860000D03*
X281725000Y-108130000D03*
%TD*%
D23*
%TO.C,R5*%
X277325000Y-110930000D03*
X277325000Y-109970000D03*
%TD*%
D20*
%TO.C,D5*%
X129656250Y-44393750D03*
X129656250Y-41093750D03*
%TD*%
D26*
%TO.C,R4*%
X270499427Y-83117930D03*
X271178249Y-83796752D03*
%TD*%
D20*
%TO.C,D31*%
X86793750Y-82493750D03*
X86793750Y-79193750D03*
%TD*%
%TO.C,D41*%
X277293750Y-82493750D03*
X277293750Y-79193750D03*
%TD*%
%TO.C,D21*%
X158231250Y-63443750D03*
X158231250Y-60143750D03*
%TD*%
%TO.C,D14*%
X301106250Y-44393750D03*
X301106250Y-41093750D03*
%TD*%
D33*
%TO.C,J2*%
X140275000Y-46125000D03*
X140275000Y-47125000D03*
X140275000Y-48125000D03*
X140275000Y-49125000D03*
D34*
X144150000Y-44825000D03*
X144150000Y-50425000D03*
%TD*%
D26*
%TO.C,C6*%
X269727747Y-85605601D03*
X270406569Y-86284423D03*
%TD*%
D20*
%TO.C,D27*%
X272531250Y-63443750D03*
X272531250Y-60143750D03*
%TD*%
%TO.C,D1*%
X53456250Y-44393750D03*
X53456250Y-41093750D03*
%TD*%
%TO.C,D4*%
X110606250Y-44393750D03*
X110606250Y-41093750D03*
%TD*%
%TO.C,D37*%
X201093750Y-82493750D03*
X201093750Y-79193750D03*
%TD*%
%TO.C,D44*%
X96318750Y-101543750D03*
X96318750Y-98243750D03*
%TD*%
D24*
%TO.C,C5*%
X280245980Y-94034423D03*
X279567158Y-93355601D03*
%TD*%
D20*
%TO.C,D54*%
X293962500Y-101543750D03*
X293962500Y-98243750D03*
%TD*%
%TO.C,D47*%
X153468750Y-101543750D03*
X153468750Y-98243750D03*
%TD*%
D35*
%TO.C,R2*%
X281575000Y-98700001D03*
X281575000Y-100250001D03*
%TD*%
D24*
%TO.C,C4*%
X279570980Y-94709423D03*
X278892158Y-94030601D03*
%TD*%
D20*
%TO.C,D36*%
X182043750Y-82493750D03*
X182043750Y-79193750D03*
%TD*%
%TO.C,D35*%
X162993750Y-82493750D03*
X162993750Y-79193750D03*
%TD*%
%TO.C,D8*%
X186806250Y-44393750D03*
X186806250Y-41093750D03*
%TD*%
%TO.C,D52*%
X248718750Y-101543750D03*
X248718750Y-98243750D03*
%TD*%
%TO.C,D62*%
X291581250Y-120593750D03*
X291581250Y-117293750D03*
%TD*%
D26*
%TO.C,C8*%
X280977747Y-90880601D03*
X281656569Y-91559423D03*
%TD*%
D20*
%TO.C,D34*%
X143943750Y-82493750D03*
X143943750Y-79193750D03*
%TD*%
%TO.C,D29*%
X315393750Y-63443750D03*
X315393750Y-60143750D03*
%TD*%
D23*
%TO.C,C19*%
X306975000Y-116705001D03*
X306975000Y-115745001D03*
%TD*%
D28*
%TO.C,R3*%
X46955000Y-81475000D03*
X45995000Y-81475000D03*
%TD*%
D20*
%TO.C,D18*%
X101081250Y-63443750D03*
X101081250Y-60143750D03*
%TD*%
%TO.C,D48*%
X172518750Y-101543750D03*
X172518750Y-98243750D03*
%TD*%
%TO.C,D22*%
X177281250Y-63443750D03*
X177281250Y-60143750D03*
%TD*%
%TO.C,D11*%
X243956250Y-44393750D03*
X243956250Y-41093750D03*
%TD*%
D26*
%TO.C,C10*%
X278217158Y-94705601D03*
X278895980Y-95384423D03*
%TD*%
D20*
%TO.C,D46*%
X134418750Y-101543750D03*
X134418750Y-98243750D03*
%TD*%
%TO.C,D58*%
X151025000Y-119400000D03*
X151025000Y-116100000D03*
%TD*%
D36*
%TO.C,R1*%
X280075000Y-100250000D03*
X280075000Y-98700000D03*
%TD*%
D37*
%TO.C,U1*%
X273187742Y-94562742D03*
X272904899Y-94279899D03*
X272622057Y-93997057D03*
X272339214Y-93714214D03*
X272056371Y-93431371D03*
X271773529Y-93148529D03*
X271490686Y-92865686D03*
X271207843Y-92582843D03*
X270925000Y-92300000D03*
X270642158Y-92017158D03*
X270359315Y-91734315D03*
X270076472Y-91451472D03*
X269793630Y-91168630D03*
X269510787Y-90885787D03*
D38*
X269510787Y-89701383D03*
X269793630Y-89418540D03*
X270076472Y-89135698D03*
X270359315Y-88852855D03*
X270642158Y-88570012D03*
X270925000Y-88287170D03*
X271207843Y-88004327D03*
X271490686Y-87721484D03*
X271773529Y-87438641D03*
X272056371Y-87155799D03*
X272339214Y-86872956D03*
X272622057Y-86590113D03*
X272904899Y-86307271D03*
X273187742Y-86024428D03*
D37*
X274372146Y-86024428D03*
X274654989Y-86307271D03*
X274937831Y-86590113D03*
X275220674Y-86872956D03*
X275503517Y-87155799D03*
X275786359Y-87438641D03*
X276069202Y-87721484D03*
X276352045Y-88004327D03*
X276634888Y-88287170D03*
X276917730Y-88570012D03*
X277200573Y-88852855D03*
X277483416Y-89135698D03*
X277766258Y-89418540D03*
X278049101Y-89701383D03*
D38*
X278049101Y-90885787D03*
X277766258Y-91168630D03*
X277483416Y-91451472D03*
X277200573Y-91734315D03*
X276917730Y-92017158D03*
X276634888Y-92300000D03*
X276352045Y-92582843D03*
X276069202Y-92865686D03*
X275786359Y-93148529D03*
X275503517Y-93431371D03*
X275220674Y-93714214D03*
X274937831Y-93997057D03*
X274654989Y-94279899D03*
X274372146Y-94562742D03*
D39*
X273779944Y-90293585D03*
%TD*%
D20*
%TO.C,D32*%
X105843750Y-82493750D03*
X105843750Y-79193750D03*
%TD*%
D24*
%TO.C,C15*%
X271850000Y-83125000D03*
X271171178Y-82446178D03*
%TD*%
D20*
%TO.C,D28*%
X291581250Y-63443750D03*
X291581250Y-60143750D03*
%TD*%
D31*
%TO.C,C13*%
X286307501Y-105262500D03*
X287267501Y-105262500D03*
%TD*%
D20*
%TO.C,D57*%
X105843750Y-120593750D03*
X105843750Y-117293750D03*
%TD*%
%TO.C,D13*%
X282056250Y-44393750D03*
X282056250Y-41093750D03*
%TD*%
%TO.C,D53*%
X264925000Y-101525000D03*
X264925000Y-98225000D03*
%TD*%
D23*
%TO.C,C18*%
X301475000Y-116705000D03*
X301475000Y-115745000D03*
%TD*%
D20*
%TO.C,D25*%
X234431250Y-63443750D03*
X234431250Y-60143750D03*
%TD*%
M02*
